<?xml version="1.0" encoding="UTF-8"?>
<svg width="22px" height="30px" viewBox="0 0 22 30" version="1.1" xmlns="http://www.w3.org/2000/svg" xmlns:xlink="http://www.w3.org/1999/xlink">
    <!-- Generator: Sketch 49.3 (51167) - http://www.bohemiancoding.com/sketch -->
    <title>hand</title>
    <desc>Created with Sketch.</desc>
    <defs></defs>
    <g id="Page-1" stroke="none" stroke-width="1" fill="none" fill-rule="evenodd">
        <g id="02.-Step-2" transform="translate(-1159.000000, -494.000000)" fill="#FFFFFF">
            <g id="PICTO-MAIN" transform="translate(1155.000000, 484.000000)">
                <path d="M19.3937923,35.3159773 C19.1516679,35.4210012 19.039653,35.7036334 19.1432975,35.9481089 C19.2208463,36.1306888 19.3967466,36.240187 19.5818789,36.240187 C19.6444103,36.240187 19.7079264,36.2275096 19.7693499,36.2011604 C20.656237,35.8173574 21.4139992,35.3430723 22.0666397,34.8113658 L22.0666397,38.0938266 C22.0666397,38.2087935 22.0042314,38.314563 21.9039104,38.37012 C16.0979699,41.5886965 10.7698775,39.186323 9.27564821,38.3736001 C9.17458863,38.3185403 9.11218034,38.212895 9.11218034,38.0975552 L9.11218034,35.0150748 C9.67767085,35.3983807 10.310001,35.7470101 11.0262808,36.0415739 C11.0851194,36.0656859 11.1461736,36.0772448 11.205997,36.0772448 C11.3940835,36.0772448 11.5723225,35.9641422 11.6476556,35.7770879 C11.7467457,35.5311208 11.6295609,35.2499801 11.38559,35.1498035 C5.53447429,32.7441986 5.55207663,26.6980575 5.55576943,26.4343172 L5.55576943,18.4449245 C5.55576943,17.6520878 6.19437734,17.0071545 6.97946625,17.0071545 C7.91288256,17.0071545 8.69427867,17.7675519 8.70769584,18.7068005 L8.70769584,24.964605 C8.70769584,25.2391584 8.92827899,25.4617592 9.20006894,25.4617592 C9.47198198,25.4617592 9.69244204,25.2391584 9.69244204,24.964605 L9.69244204,10.9980514 C9.69244204,10.1413304 10.3827491,9.44444444 11.231108,9.44444444 C12.0795899,9.44444444 12.7697739,10.1413304 12.7697739,10.9980514 L12.7697739,14.6024195 L12.7697739,16.5963808 L12.7611574,16.6009795 C12.7611574,16.6306845 12.7647271,16.6593951 12.7697739,16.6874843 L12.7697739,17.0881906 L12.7697739,20.6925587 C12.7697739,20.9671122 12.9903571,21.189713 13.262147,21.189713 C13.5340601,21.189713 13.7545201,20.9671122 13.7545201,20.6925587 L13.7545201,17.0881906 L13.7545201,14.6024195 C13.7545201,13.7456985 14.4448272,13.0488126 15.2931861,13.0488126 C16.141668,13.0488126 16.8319751,13.7456985 16.8319751,14.6024195 L16.8319751,16.0938822 L16.8319751,18.5796533 L16.8319751,20.071116 C16.8319751,20.3456694 17.0524352,20.5682702 17.3243482,20.5682702 C17.5961382,20.5682702 17.8165982,20.3456694 17.8165982,20.071116 L17.8165982,18.5796533 L17.8165982,16.0938822 C17.8165982,15.2371612 18.5069053,14.5402752 19.3553872,14.5402752 C20.2037461,14.5402752 20.8940532,15.2371612 20.8940532,16.0938822 L20.8940532,17.833922 L20.8940532,18.5796533 L20.8940532,19.3253846 C20.8940532,19.599938 21.1145132,19.8225389 21.3863032,19.8225389 C21.6582162,19.8225389 21.8786763,19.599938 21.8786763,19.3253846 L21.8786763,18.5796533 L21.8786763,17.833922 C21.8786763,16.9772009 22.5689834,16.280315 23.4174653,16.280315 C24.2658242,16.280315 24.9561313,16.9772009 24.9561313,17.833922 L24.9561313,18.0153833 L24.9126793,18.0151347 L24.9561313,23.3696099 L24.9561313,23.9240612 C24.9561313,23.9408401 24.9593317,23.9565005 24.961055,23.9729066 L24.9713948,25.2487286 C25.0219862,25.328149 25.502173,32.6728569 19.3937923,35.3159773" id="hand" transform="translate(15.277778, 24.722222) rotate(-15.000000) translate(-15.277778, -24.722222) "></path>
            </g>
        </g>
    </g>
</svg>