<?xml version="1.0" encoding="UTF-8"?>
<svg width="25px" height="39px" viewBox="0 0 25 39" version="1.1" xmlns="http://www.w3.org/2000/svg" xmlns:xlink="http://www.w3.org/1999/xlink">
    <!-- Generator: Sketch 49.3 (51167) - http://www.bohemiancoding.com/sketch -->
    <title>PICTO MAIN</title>
    <desc>Created with Sketch.</desc>
    <defs></defs>
    <g id="Page-1" stroke="none" stroke-width="1" fill="none" fill-rule="evenodd">
        <g id="00.-Step-1" transform="translate(-1107.000000, -755.000000)" fill="#FFFFFF">
            <g id="PICTO-MAIN" transform="translate(1106.000000, 754.000000)">
                <path d="M4.59117661,4.34588258 L5.28668724,1.3320032 C5.35442332,1.0384802 5.64728166,0.85544374 5.94080466,0.923179816 C6.23432766,0.990915893 6.41736412,1.28377424 6.34962804,1.57729723 L5.65411742,4.59117661 L8.6679968,5.28668724 C8.9615198,5.35442332 9.14455626,5.64728166 9.07682018,5.94080466 C9.00908411,6.23432766 8.71622576,6.41736412 8.42270277,6.34962804 L5.40882339,5.65411742 L4.71331276,8.6679968 C4.64557668,8.9615198 4.35271834,9.14455626 4.05919534,9.07682018 C3.76567234,9.00908411 3.58263588,8.71622576 3.65037196,8.42270277 L4.34588258,5.40882339 L1.3320032,4.71331276 C1.0384802,4.64557668 0.85544374,4.35271834 0.923179816,4.05919534 C0.990915893,3.76567234 1.28377424,3.58263588 1.57729723,3.65037196 L4.59117661,4.34588258 Z" id="Combined-Shape" fill-rule="nonzero" transform="translate(5.000000, 5.000000) rotate(10.000000) translate(-5.000000, -5.000000) "></path>
                <path d="M18.972098,34.3745235 C18.7384394,34.4764726 18.6303411,34.7508305 18.7303617,34.9881489 C18.805199,35.1653836 18.9749489,35.2716762 19.153608,35.2716762 C19.213953,35.2716762 19.2752483,35.2593699 19.3345242,35.2337921 C20.1904012,34.8612252 20.9216682,34.4008251 21.5514892,33.8846848 L21.5514892,37.0710489 C21.5514892,37.1826501 21.491263,37.2853231 21.3944497,37.3392536 C15.7915141,40.4636037 10.6497186,38.1315616 9.2077351,37.3426318 C9.11020907,37.2891839 9.04998289,37.1866315 9.04998289,37.0746684 L9.04998289,34.08243 C9.595701,34.4545144 10.2059217,34.7929373 10.8971567,35.0788776 C10.953938,35.1022837 11.0128575,35.1135041 11.0705891,35.1135041 C11.2520992,35.1135041 11.4241061,35.0037127 11.4968052,34.8221346 C11.5924306,34.5833685 11.4793432,34.3104584 11.2439027,34.2132145 C5.59737146,31.8780356 5.61435833,26.0089002 5.61792201,25.7528811 L5.61792201,17.9973843 C5.61792201,17.2277586 6.23420098,16.6017062 6.99183923,16.6017062 C7.8926186,16.6017062 8.64669317,17.3398423 8.6596412,18.2515937 L8.6596412,24.3261959 C8.6596412,24.5927115 8.87251166,24.8087955 9.13479846,24.8087955 C9.39720406,24.8087955 9.60995572,24.5927115 9.60995572,24.3261959 L9.60995572,10.7685245 C9.60995572,9.93688465 10.2761262,9.26040062 11.0948222,9.26040062 C11.9136369,9.26040062 12.5796886,9.93688465 12.5796886,10.7685245 L12.5796886,14.2673718 L12.5796886,16.2029583 L12.5713733,16.2074223 C12.5713733,16.2362576 12.5748182,16.2641278 12.5796886,16.2913946 L12.5796886,16.6803699 L12.5796886,20.1792173 C12.5796886,20.4457329 12.792559,20.6618169 13.0548458,20.6618169 C13.3172514,20.6618169 13.5300031,20.4457329 13.5300031,20.1792173 L13.5300031,16.6803699 L13.5300031,14.2673718 C13.5300031,13.435732 14.1961736,12.7592479 15.0148695,12.7592479 C15.8336843,12.7592479 16.4998548,13.435732 16.4998548,14.2673718 L16.4998548,15.7151707 L16.4998548,18.1281688 L16.4998548,19.5759677 C16.4998548,19.8424834 16.7126064,20.0585674 16.975012,20.0585674 C17.2372988,20.0585674 17.4500505,19.8424834 17.4500505,19.5759677 L17.4500505,18.1281688 L17.4500505,15.7151707 C17.4500505,14.8835309 18.116221,14.2070468 18.9350357,14.2070468 C19.7537317,14.2070468 20.4199021,14.8835309 20.4199021,15.7151707 L20.4199021,17.4042694 L20.4199021,18.1281688 L20.4199021,18.8520683 C20.4199021,19.1185839 20.6326538,19.3346679 20.8949406,19.3346679 C21.1573462,19.3346679 21.3700979,19.1185839 21.3700979,18.8520683 L21.3700979,18.1281688 L21.3700979,17.4042694 C21.3700979,16.5726296 22.0362683,15.8961455 22.8550831,15.8961455 C23.673779,15.8961455 24.3399495,16.5726296 24.3399495,17.4042694 L24.3399495,17.5804183 L24.2980169,17.580177 L24.3399495,22.7778956 L24.3399495,23.3161149 C24.3399495,23.3324026 24.343038,23.3476045 24.3447011,23.3635303 L24.3546794,24.6020016 C24.4035018,24.6790969 24.8668989,31.8087825 18.972098,34.3745235 M25.44398,24.5909379 L25.4167705,21.7704152 L25.4167705,17.3650285 C25.4167705,15.9901012 24.3094849,14.8715741 22.9486445,14.8715741 C22.3759189,14.8715741 21.8495459,15.0714153 21.4302052,15.4033488 C21.3016219,14.149567 20.2498391,13.1687271 18.9755637,13.1687271 C18.3880293,13.1687271 17.8482923,13.377934 17.4241358,13.7254364 C17.2029677,12.5782041 16.2017513,11.709144 15.0023625,11.709144 C14.4356567,11.709144 13.9145811,11.905093 13.4974076,12.2307017 L13.4974076,10.6752726 C13.4974076,9.30034537 12.3902424,8.18181818 11.0292816,8.18181818 C9.66844127,8.18181818 8.56115569,9.30034537 8.56115569,10.6752726 L8.56115569,16.2270402 C8.10918764,15.8449944 7.50491817,15.6138937 6.87079039,15.6138937 C5.58868925,15.6138937 4.54545455,16.6675911 4.54545455,17.9629711 L4.54581573,25.7736868 C4.54461177,25.8295158 4.5204121,30.392051 8.023947,33.4604595 L8.023947,37.1955327 C8.023947,37.6550581 8.27292673,38.0761478 8.67432829,38.2947204 C9.64857587,38.8251572 12.1765388,40 15.4145997,40 C17.383201,40 19.6139053,39.5652875 21.9167271,38.2885172 C22.3137943,38.0686067 22.5602458,37.6482467 22.5602458,37.1918837 L22.5602458,33.1022535 C25.7706154,29.6317298 25.4474715,24.6253598 25.44398,24.5909379" id="hand" transform="translate(15.000000, 24.090909) rotate(-15.000000) translate(-15.000000, -24.090909) "></path>
            </g>
        </g>
    </g>
</svg>