<?xml version="1.0" encoding="UTF-8"?>
<svg width="384px" height="66px" viewBox="0 0 384 66" version="1.1" xmlns="http://www.w3.org/2000/svg" xmlns:xlink="http://www.w3.org/1999/xlink">
    <!-- Generator: Sketch 49.3 (51167) - http://www.bohemiancoding.com/sketch -->
    <title>logo_cci</title>
    <desc>Created with Sketch.</desc>
    <defs></defs>
    <g id="Page-1" stroke="none" stroke-width="1" fill="none" fill-rule="evenodd">
        <g id="logo_cci" transform="translate(0.000000, 1.000000)" fill="#FFFFFF" fill-rule="nonzero">
            <path d="M70.76,38.92 L70.76,37.8 C70.76,32.38 72.56,28.5 79.16,28.5 C84.16,28.5 86.36,30.58 86.91,35.14 L82.7,35.76 C82.54,33.37 81.55,31.94 79.07,31.94 C75.69,31.94 74.7,34.14 74.7,37.8 L74.7,38.92 C74.7,42.92 75.7,44.78 79.13,44.78 C81.8,44.78 82.6,43.63 82.91,40.72 L87.1,41.18 C86.36,45.49 84.31,48.18 78.82,48.18 C72.65,48.19 70.76,44.28 70.76,38.92 Z" id="Shape"></path>
            <path d="M88.46,38.92 L88.46,37.8 C88.46,32.38 90.26,28.5 96.86,28.5 C101.86,28.5 104.06,30.58 104.61,35.14 L100.4,35.76 C100.24,33.37 99.25,31.94 96.77,31.94 C93.39,31.94 92.4,34.14 92.4,37.8 L92.4,38.92 C92.4,42.92 93.4,44.78 96.83,44.78 C99.5,44.78 100.3,43.63 100.61,40.72 L104.8,41.18 C104.06,45.49 102.01,48.18 96.52,48.18 C90.35,48.19 88.46,44.28 88.46,38.92 Z" id="Shape"></path>
            <polygon id="Shape" points="107.15 28.66 111.06 28.66 111.06 48.07 107.15 48.07"></polygon>
            <path d="M119.84,30.54 L127.48,30.54 C130.48,30.54 133.56,31.41 133.56,35.83 C133.56,39.75 130.64,41.4 127.48,41.4 L123.36,41.4 L123.36,48.07 L119.84,48.07 L119.84,30.54 Z M127.03,38.54 C128.74,38.54 130.03,38.01 130.03,35.99 C130.03,33.97 128.88,33.47 127.03,33.47 L123.36,33.47 L123.36,38.54 L127.03,38.54 Z" id="Shape"></path>
            <path d="M140.13,30.4 L143.72,30.4 L149.72,48.07 L146.17,48.07 L144.96,44.54 L138.89,44.54 L137.71,48.07 L134.27,48.07 L140.13,30.4 Z M139.8,41.71 L144,41.71 L141.9,35.52 L139.8,41.71 Z" id="Shape"></path>
            <path d="M158.45,41.18 L155,41.18 L155,48.07 L151.5,48.07 L151.5,30.54 L159.15,30.54 C162.25,30.54 165.22,31.43 165.22,35.77 C165.373706,37.951487 164.039486,39.9630793 161.97,40.67 L165.5,48.07 L161.72,48.07 L158.45,41.18 Z M158.7,38.27 C160.7,38.27 161.7,37.57 161.7,35.83 C161.7,34.09 160.75,33.45 158.7,33.45 L155,33.45 L155,38.27 L158.7,38.27 Z" id="Shape"></path>
            <polygon id="Shape" points="167.91 30.54 171.44 30.54 171.44 48.07 167.91 48.07"></polygon>
            <path d="M173.57,42.8 L177.34,42.41 C177.71,44.2 178.52,45.12 181.24,45.12 C183.24,45.12 184.57,44.59 184.57,43 C184.57,41.41 183.14,41.12 180.57,40.53 C177.35,39.83 174.41,39.08 174.41,35.35 C174.41,32.58 176.26,30.35 181.15,30.35 C185.05,30.35 187.15,31.94 187.96,34.97 L184.07,35.47 C183.79,34.1 183,33.47 181.15,33.47 C178.8,33.47 177.96,34.08 177.96,35.26 C177.96,36.44 179.06,36.83 181.6,37.41 C185.72,38.34 188.16,39.18 188.16,42.99 C188.16,46.46 185.08,48.17 181.24,48.17 C176,48.21 174.32,46 173.57,42.8 Z" id="Shape"></path>
            <polygon id="Shape" points="195.29 30.54 198.82 30.54 198.82 48.07 195.29 48.07"></polygon>
            <polygon id="Shape" points="202.09 30.54 205.62 30.54 205.62 45 213.62 45 213.62 48.08 202.09 48.08"></polygon>
            <polygon id="Shape" points="215.59 30.54 227.49 30.54 227.49 33.65 219.12 33.65 219.12 37 226.65 37 226.65 40.06 219.12 40.06 219.12 45 227.49 45 227.49 48.08 215.59 48.08"></polygon>
            <polygon id="Shape" points="229.2 39.05 237.74 39.05 237.74 42.05 229.2 42.05"></polygon>
            <path d="M239.87,30.54 L245.94,30.54 C252.07,30.54 253.53,33.9 253.53,38.74 L253.53,39.83 C253.53,44.62 251.6,48.07 245.97,48.07 L239.87,48.07 L239.87,30.54 Z M246,45.12 C249.28,45.12 250,43.05 250,39.81 L250,38.74 C250,35.05 249,33.53 246,33.53 L243.45,33.53 L243.45,45.12 L246,45.12 Z" id="Shape"></path>
            <polygon id="Shape" points="255.91 30.54 267.81 30.54 267.81 33.65 259.44 33.65 259.44 37 267 37 267 40.06 259.47 40.06 259.47 45 267.84 45 267.84 48.08 255.94 48.08"></polygon>
            <polygon id="Shape" points="269.52 39.05 278.06 39.05 278.06 42.05 269.52 42.05"></polygon>
            <polygon id="Shape" points="280.18 30.54 292.08 30.54 292.08 33.65 283.71 33.65 283.71 37.37 291.24 37.37 291.24 40.48 283.71 40.48 283.71 48.07 280.18 48.07"></polygon>
            <path d="M301,41.18 L297.58,41.18 L297.58,48.07 L294,48.07 L294,30.54 L301.65,30.54 C304.75,30.54 307.72,31.43 307.72,35.77 C307.87504,37.9487956 306.545518,39.9594923 304.48,40.67 L308,48.07 L304.22,48.07 L301,41.18 Z M301.25,38.27 C303.25,38.27 304.25,37.57 304.25,35.83 C304.25,34.09 303.25,33.45 301.25,33.45 L297.58,33.45 L297.58,38.27 L301.25,38.27 Z" id="Shape"></path>
            <path d="M314.9,30.4 L318.49,30.4 L324.49,48.07 L320.93,48.07 L319.73,44.54 L313.66,44.54 L312.48,48.07 L309,48.07 L314.9,30.4 Z M314.57,41.71 L318.74,41.71 L316.64,35.52 L314.57,41.71 Z" id="Shape"></path>
            <polygon id="Shape" points="326.27 30.54 330.5 30.54 336.55 41.43 336.55 30.54 340 30.54 340 48.07 336.53 48.07 329.66 35.8 329.66 48.07 326.27 48.07"></polygon>
            <path d="M342.34,39.81 L342.34,38.81 C342.34,33.91 343.96,30.41 349.93,30.41 C354.41,30.41 356.42,32.28 356.93,36.41 L353.12,36.97 C352.98,34.81 352.12,33.53 349.84,33.53 C346.84,33.53 345.9,35.53 345.9,38.82 L345.9,39.82 C345.9,43.4 346.82,45.11 349.9,45.11 C352.31,45.11 353.04,44.11 353.32,41.44 L357.1,41.86 C356.42,45.75 354.58,48.19 349.62,48.19 C344.05,48.18 342.34,44.65 342.34,39.81 Z" id="Shape"></path>
            <polygon id="Shape" points="359.17 30.54 371.07 30.54 371.07 33.65 362.7 33.65 362.7 37 370.23 37 370.23 40.06 362.7 40.06 362.7 45 371.07 45 371.07 48.08 359.17 48.08"></polygon>
            <path d="M13,38.81 C13.0110416,52.9114469 24.4485498,64.3355256 38.55,64.33 C44.2380783,64.3417695 49.7633738,62.4318778 54.23,58.91 L48.85,52.91 C42.749167,57.3617564 34.4754117,57.3780137 28.357131,52.9502671 C22.2388503,48.5225205 19.6681717,40.6582403 21.9899398,33.4716075 C24.311708,26.2849748 30.9976379,21.4112049 38.55,21.4 C40.9614035,21.3960164 43.3465733,21.9003095 45.55,22.88 L48.76,15.44 C40.8706484,11.972647 31.7637561,12.7245842 24.5499541,17.4389733 C17.336152,22.1533624 12.9915015,30.1923244 13,38.81 Z" id="Shape"></path>
            <path d="M25,38.81 C25.0055151,46.318787 31.091213,52.4044849 38.6,52.41 C41.3161624,52.3968981 43.9638097,51.5562091 46.19,50 C46.19,50 41.19,44.36 40.69,43.88 C40.0129343,44.1684261 39.2858886,44.3213095 38.55,44.33 C37.080004,44.3406743 35.66669,43.7634987 34.6244053,42.726848 C33.5821206,41.6901973 32.9972933,40.2800322 33,38.81 C33.0105959,35.7559702 35.4662632,33.2736109 38.52,33.23 C39.2949211,33.234562 40.0606818,33.3979243 40.77,33.71 L44,26.39 C42.2820056,25.6328041 40.4274013,25.2346597 38.55,25.22 C31.0646431,25.2529917 25.0109272,31.3245784 25,38.81 Z" id="Shape"></path>
            <path d="M48.69,33.53 C49.5251086,35.1665086 49.9732909,36.9729226 50,38.81 C49.9450301,41.411849 49.0662275,43.9292159 47.49,46 L53,52 C56.2994953,48.4116767 58.1304583,43.7147034 58.13,38.84 C58.134754,35.8223087 57.4507187,32.8433348 56.13,30.13 L48.69,33.53 Z" id="Shape"></path>
            <path d="M46.42,30.51 L60.27,24 C58.2567893,20.9973042 55.6372727,18.4493218 52.58,16.52 L46.38,30.45 L46.42,30.51 Z" id="Shape"></path>
            <path d="M0.16,0.2 L383.77,0.2" id="Shape" stroke="#FFFFFF" stroke-width="0.5"></path>
        </g>
    </g>
</svg>