<?xml version="1.0" encoding="UTF-8"?>
<svg width="18px" height="18px" viewBox="0 0 18 18" version="1.1" xmlns="http://www.w3.org/2000/svg" xmlns:xlink="http://www.w3.org/1999/xlink">
    <!-- Generator: Sketch 49.3 (51167) - http://www.bohemiancoding.com/sketch -->
    <title>Combined Shape</title>
    <desc>Created with Sketch.</desc>
    <defs></defs>
    <g id="Page-1" stroke="none" stroke-width="1" fill="none" fill-rule="evenodd">
        <g id="06.-A-propos" transform="translate(-711.000000, -974.000000)" fill="#090E1C" fill-rule="nonzero">
            <path d="M720,981.312325 L726.951472,974.351923 C727.420101,973.882692 728.179899,973.882692 728.648528,974.351923 C729.117157,974.821155 729.117157,975.581929 728.648528,976.05116 L721.697056,983.011562 L728.625434,989.94884 C729.094063,990.418071 729.094063,991.178845 728.625434,991.648077 C728.156805,992.117308 727.397007,992.117308 726.928378,991.648077 L720,984.710798 L713.071622,991.648077 C712.602993,992.117308 711.843195,992.117308 711.374566,991.648077 C710.905937,991.178845 710.905937,990.418071 711.374566,989.94884 L718.302944,983.011562 L711.351472,976.05116 C710.882843,975.581929 710.882843,974.821155 711.351472,974.351923 C711.820101,973.882692 712.579899,973.882692 713.048528,974.351923 L720,981.312325 Z" id="Combined-Shape"></path>
        </g>
    </g>
</svg>