<?xml version="1.0" encoding="UTF-8"?>
<svg width="22px" height="23px" viewBox="0 0 22 23" version="1.1" xmlns="http://www.w3.org/2000/svg" xmlns:xlink="http://www.w3.org/1999/xlink">
    <!-- Generator: Sketch 49.3 (51167) - http://www.bohemiancoding.com/sketch -->
    <title>Group 3</title>
    <desc>Created with Sketch.</desc>
    <defs></defs>
    <g id="Page-1" stroke="none" stroke-width="1" fill="none" fill-rule="evenodd">
        <g id="GUIDELINE" transform="translate(-412.000000, -520.000000)" fill="#FFFFFF">
            <g id="PICTOS" transform="translate(44.000000, 418.000000)">
                <g id="Page-1" transform="translate(0.000000, 93.000000)">
                    <g id="Group-3" transform="translate(368.000000, 9.000000)">
                        <path d="M8.8838,0.4555 C8.3308,0.4555 7.8838,0.9035 7.8838,1.4555 L7.8838,18.6925 L2.1028,12.9115 C1.7118,12.5205 1.0788,12.5205 0.6888,12.9115 C0.2978,13.3025 0.2978,13.9345 0.6888,14.3255 L8.1768,21.8135 C8.3678,22.0055 8.6238,22.1065 8.8838,22.1065 C9.0128,22.1065 9.1428,22.0815 9.2668,22.0305 C9.6408,21.8755 9.8838,21.5115 9.8838,21.1065 L9.8838,1.4555 C9.8838,0.9035 9.4368,0.4555 8.8838,0.4555" id="Fill-11"></path>
                        <path d="M21.5908,8.2368 L14.1028,0.7488 C13.8168,0.4628 13.3868,0.3788 13.0128,0.5318 C12.6388,0.6868 12.3958,1.0508 12.3958,1.4558 L12.3958,21.1068 C12.3958,21.6588 12.8428,22.1068 13.3958,22.1068 C13.9478,22.1068 14.3958,21.6588 14.3958,21.1068 L14.3958,3.8698 L20.1768,9.6508 C20.5678,10.0418 21.1998,10.0418 21.5908,9.6508 C21.9818,9.2598 21.9818,8.6278 21.5908,8.2368" id="Fill-13"></path>
                    </g>
                </g>
            </g>
        </g>
    </g>
</svg>