<svg width="82" height="44" viewBox="0 0 82 44" xmlns="http://www.w3.org/2000/svg" xmlns:xlink="http://www.w3.org/1999/xlink">
  <defs>
    <path d="M46.1059519 25.5782312l-.0004269.0004677c.0992632.1571429.1979868.3133187.29725.469978-.0183421.0082198-.0372237.0169231-.0550263.0251429-.1149079-.1518242-.1915132-.3186374-.2373684-.5004396l-.0001185.0001298c-.0717425-.1029849-.1024892-.2161242-.0976342-.3693913.0916775.1353358.0890151.254727.0933243.3741125zM24.2763158 3.78951209c.019421.03046154.0393816.06043956.0588026.09041758-.0107895.0058022-.0226579.01112088-.0339868.01740659-.0172632-.03142857-.0356053-.06285714-.0534079-.09476923.0097105-.00338461.0188816-.00870329.0285921-.01305494zm8.5862631 20.93099341c.0377632.0396483.0798422.0647912.0771448.0850989-.0043158.0323956-.0388421.0604396-.0604211.0909011-.0269737-.0198242-.0744473-.0401319-.0749868-.0604396-.0005395-.0319121.0302105-.0643077.0582631-.1155604zm44.3875172-11.2832923c-.0852369.0019341-.1699343.0033846-.25625.0053187v-.0212748c.0868552-.0058022.173171-.0116044.2600263-.0174066-.0016185.0111209-.0026974.0227253-.0037763.0333627zm-32.9927 13.1842857c-.1105922-.5391209-.206079-1.0748571-.2082369-1.6328352.0879342.0154726.1381053.044.09225.1097583-.0436974.0623736-.0593421.1054066.0199605.1527912.0199606.0111209.0291316.0469011.0312895.0725275.0323684.3326593.0663553.6653186.0900921.9984615.0075526.0991209-.0156447.1996923-.0253552.2992967zm37.0498118.3907297c-.09225.0038681-.1494342-.044-.1586053-.1344176-.0086315-.0928352.0539474-.1634286.1472763-.1677802.0873948-.0029011.164.0705934.1645395.1585934.0005395.0788132-.0647368.1402198-.1532105.1436044zm-34.2354855.1336439c-.1278553-.1639121-.2594869-.3254066-.3835658-.4927033-.0679737-.0913846-.1219211-.1914725-.205-.3254066.0685131.0319121.0949473.0352967.1041184.0488352.1521316.2253187.3031842.4516044.4515395.6788571.0183421.027077.019421.0633407.0275131.0952528l.0053948-.0048352zm-.0052869.0049802c.0507106.0391649.1100527.0715605.1494342.1174946.103579.119912.1979869.2451428.3139737.3916483-.1688552-.0638242-.3851842-.3196044-.4580131-.513978l-.0053948.0048351zM22.1816474 28.242778c.0156447-.0546373.0156447-.1223296.0534079-.1590769.0226579-.0222418.1041184.0029011.1586052.0067692-.01025.0425495-.0070131.1102418-.0345263.1223297-.0528684.0241758-.123.0174066-.1866579.0227253l.0091711.0072527zm.3887987-22.89431207c-.0458553-.04980219-.0981843-.08945055-.0911711-.10202197.0194211-.03771429.0615-.0672088.1025-.08945055.0080921-.00435165.07175.04254945.0679737.05802197-.0091711.03964836-.042079.07494506-.0793026.13345055zM6.09173684 19.4365407c.08038158-.0348132.12839474-.0464176.16130263-.072044.2891579-.2320879.64736842-.3713407.95702632-.5763516.26272368-.175033.54972368-.320088.81730263-.4893187.36792105-.2320879.73206579-.468044 1.08811842-.7146374.36198684-.249978.72343421-.5028571 1.06546056-.7731428.357671-.2847913.7110263-.570066 1.0276973-.8974066.3031842-.3113847.5815527-.6285715.8059737-.9892748.1370263-.2204835.1440395-.4433846.082-.6720879-.1381052-.5125274-.4849868-.8916044-.9732105-1.1691428-.3641447-.2074286-.7714474-.3263737-1.18198685-.4337143-.50764473-.132-1.02230263-.2233846-1.55422368-.2170989-.48067105.0048351-.85614474.1735824-1.09836842.5531428-.15968421.249011-.32314474.4965715-.46448684.7538022-.33663158.6145495-.59126316 1.2585934-.81568422 1.9123077-.04693421.1368352-.09117105.2746374-.12138157.4143737-.06689474.308-.10034211.6232527-.19313158.924-.06311842.2016263-.05448685.3906813-.01618421.5836043.09656579.4835165.20338158.9655825.30857894 1.4476484.02859211.132.06635527.2625495.10519737.4153407m2.76156579 8.4262417c.07876316-.0053187.13486842.0014506.18234211-.014022.35065789-.1145934.71264473-.2103296 1.04657896-.3563516.4137763-.1822857.8340263-.3544176 1.2202895-.5874725.2950921-.1784176.6198552-.3186374.9246579-.4844836.2929342-.1590769.58425-.3210549.8636973-.4980219.2578684-.1639121.503329-.3447473.7471711-.5265495.2395263-.177934.4709605-.3650549.7029342-.5512088.0712105-.058022.1715526-.1199121.1871974-.1924395.0237368-.1121759.1041184-.1789011.1618421-.264.0933289-.1392528.2233421-.2712528.2686579-.423077.082-.2746373.1796447-.5560439.1483552-.8437362-.0210395-.1861539-.0641974-.3829451-.1559079-.5487912-.2708158-.4912528-.716421-.8437363-1.2283816-1.1285275-.39975-.2214506-.8437368-.3452308-1.2958157-.454022-.8529079-.2054945-1.6971843-.1344176-2.5295922.0647912-.32368416.0778462-.64574995.1508572-.97536837.2016264-.17209211.0261099-.30264474.0986374-.38032895.2325714-.1251579.2161319-.36144737.3631209-.45477632.5981099-.00431579.0120879-.01996052.0203077-.02913158.0309451-.13055263.1421538-.26110526.2833406-.38896052.4264615-.10897369.1218462-.19582895.2659341-.32530263.3665055-.22280264.1735824-.48930264.2731868-.79842106.22-.18342105-.030945-.24815789.0135385-.24438158.1851868.00539474.2804396.01672369.5603956.0226579.8408352.0080921.4037363.01240789.8065055.02157895 1.2097582.01240789.5734506.02805263 1.1469011.04153947 1.7198682.00053947.0135384-.00377632.0265934-.00755263.0406153-.03668421.1518242.03021053.2876924.06473684.4283957.01726316.001934.03398684.0048351.05071053.0072527.03128947-.1112088.06311842-.2229011.10303947-.3636044.03722369.0938022.06096053.1532747.08469737.2132308.01456579-.0014506.02913158-.0033846.04315789-.0048352.05071053-.1358681.10088158-.2707692.15159211-.4066374.01780263.0033847.03560526.0067693.05286842.0091869-.00053947.0652747-.00377632.1300659-.00107895.1948571.00485527.1054066.08469737.2083956.1764079.235956.14997368.0435165.18126316.0357803.29131579-.0870329.03290789-.0372308.05394737-.0831649.08901316-.117978.0183421-.0178902.05556578-.0193407.09656578-.0319121-.02211842.0802637-.0388421.1407033-.05556578.2006593.01456578.0077363.02805263.0154725.041.0232088.05880263-.0493187.11652631-.0996044.17694736-.1474725.05286842-.042066.08523685-.0923517.18503948-.0909011.1003421.000967.15051316.0328791.17155263.0938022.01780263.1218461.03452631.2451428.05340789.3737582.18935527.0072528.37223685-.073978.53893421.0381978-.01078947.044967-.02157894.0904176-.03992105.1672967m2.57976317 2.9562198c-.0917105.0618901-.1618421.1324835-.2503158.1643956-.2681184.0957363-.5486447.1639121-.8135263.2669011-.1688553.0662418-.3414869.1378022-.45855265.2896264-.05880263.0763956-.17586842.1392527-.27836842.1600439-.12353947.0246594-.22657895.0681759-.32638158.132-.03668421.0236923-.07714473.0464176-.11976316.0594726-.19528947.058989-.26380263.104923-.37655263.2557802-.0205.0280439-.04801315.0618901-.07930263.0696264-.14242105.0343296-.28861842.0556043-.43103947.0904175-.0615.014989-.14080263.0372308-.17209211.0802638-.12407894.1701978-.30264473.1058901-.46610526.0971868-.07282895-.0043517-.14296053-.0406154-.21686842-.058022-.20122369-.0469011-.22603948-.0817143-.19421053-.2388571-.08415789-.1247473-.14619737-.2316044-.2255-.3263737-.04693421-.0560879-.11760526-.1005714-.18665789-.1353846-.0431579-.0217582-.10357895-.0169231-.15644737-.0222417-.09980263-.0111209-.16076316-.0536704-.12677632-.1489231.06797369-.1871209-.03722368-.3171868-.18288158-.4192088-.11328947-.0797802-.18180263-.1532747-.14619736-.2905934.01780263-.0696264-.00539474-.1373187-.06419737-.2069451-.08469737-.1000879-.14403948-.221934-.12569737-.3611868.0080921-.058989-.01348684-.1203956-.02535526-.1798681-.02589474-.1257143-.05394737-.2514286-.08146053-.3795605-.02481579-.0024175-.05178947-.0130549-.06851316-.0058021-.38842105.1851868-.77468421.0130549-1.16094737-.0101539-.0593421-.0038681-.11490789-.0628571-.17263158-.0947692-.10411842-.058022-.20823684-.1141099-.31127631-.1721319-.04531579-.0256264-.11005263-.0459341-.12785526-.0831648-.08361843-.174066-.26002632-.2364396-.4305-.3109011-.03344737-.0145055-.06797369-.0473846-.09980264-.0454506-.19205263.0120879-.27135526-.1150769-.38356579-.2190329-.17425-.161011-.36090789-.3157363-.56644736-.4429011-.35173685-.2170989-.72667106-.4013187-1.13343421-.5275165-.15860527-.0498022-.28268422-.3031649-.21632895-.4283956.11382895-.2132308.10789473-.2258022-.13918421-.3012308-.05017106-.014989-.10196053-.0261099-.17371053-.0444835.03182895-.0338462.05826316-.0609231.08146053-.0899341.02751316-.0323956.05178947-.0667253.08901316-.1145934-.13055264-.0701099-.12407895-.1692308-.08307895-.2886593.05125-.1484396.07876316-.3026813.11113158-.4554726.00863158-.0391648.01132894-.0841318-.00107895-.1213626-.12407895-.3655385-.08038158-.7455824-.13055263-1.1174066C.95540789 24.4307824.92357895 24.0135077.8815 23.598167c-.0431579-.4221099-.09386842-.8432527-.12839474-1.2663296-.04423684-.5381539-.08038158-1.0772748-.11113158-1.6163956-.01942105-.3399121-.0329079-.6803077-.03075-1.0202198.0043158-.5231649.0226579-1.0472967.0388421-1.5704616.00323685-.1025055.02427632-.2045274.03830264-.3060659.00485526-.0343297.02751316-.0696264.02103948-.1005714-.06851316-.3655385.08523684-.7160879.08253947-1.0763077-.00107895-.116044-.02319737-.2316044-.04207895-.3466813-.06689474-.4032528-.16561842-.805055-.19852631-1.2112088-.03021053-.3790769.00647368-.762989.01402631-1.1454506.00161842-.1160439-.00431579-.2325714.0043158-.3481318.01888157-.2596484.03722368-.5188132.0695921-.777011.01025-.0846154.05556578-.1677803.09602631-.2475605.03830263-.073978.1025-.1382857.13378948-.2141978.04153947-.0986373.10681578-.1600439.22010526-.1876044.041-.0106373.08577631-.0323956.11328947-.0614066.16993421-.1735824.33501316-.3510329.50278948-.5265494.01942105-.0203077.03992105-.0488352.06527631-.0546374.29509211-.0681758.46934211-.3176703.75957895-.3989011.07444737-.0207912.12461842-.1334505.16885526-.2108132.27081579-.4752967.59773684-.92013183.943-1.3533626.1251579-.15665934.29778948-.28430769.45639474-.41824176.23736842-.20114285.46232895-.41920879.72721053-.58602198.24546052-.15520879.53407894-.2581978.8075921-.37424175.13594737-.05802198.28052632-.10298901.42510526-.13828572.25571053-.06189011.51411842-.11556044.77198685-.16681318.35928947-.07204396.72397368-.07929671 1.09081579-.07591209.697.00725274 1.38428947.08364835 2.06294736.22241758.66948683.13683516 1.34382893.26496703 1.98202633.50043956.54325.20065934 1.0913553.39503297 1.6146447.63340659.4121579.1876044.8065132.41292308 1.1517763.69916484.2001448.16632971.4294211.30219781.6360395.46224171.1310921.102022.2627237.2112968.3603684.3384616.1807237.2345055.4137764.4356483.5410921.7059341.1990658.4221098.4089211.8384175.4256448 1.306945.0107895.2886593-.0151053.5661978-.1564474.836967-.0890131.1687473-.1224605.3636044-.1650789.5497583-.042079.1822857-.0981842.3573187-.2055395.5178461-.0075526.0120879-.0156447.0256264-.0264342.0338462-.0868553.0623736-.2044605.1102417-.2546316.1905055-.0490921.0792967-.0010789.1958242-.0863158.2823736-.0377631.0381978-.060421.0971868-.0663553.1494066-.019421.1658462-.1343289.2857582-.2325131.4143736-.0690526.0884835-.1656184.1663297-.2103947.2635165-.1402632.3050989-.4191711.4791648-.7385395.5584616-.2379079.0594725-.4709605.1295824-.7077895.1890549-.0663553.0169231-.1461974-.0116044-.234671-.0212747-.0178027.0236923-.0442369.0483516-.0582632.0783296-.0695921.1513407-.1586053.2775385-.3711579.2799561-.0383026.000967-.0760658.0415824-.11275.0643077-.1154474.0720439-.2211842.1571428-.3614474.1953406-.0550263.014989-.0992631.0604396-.1499737.0889671-.0895526.0493187-.1807236.0962198-.2702763.1455384-.0420789.0232088-.0830789.0473846-.1224605.073011-.0339868.0222418-.0631184.0657583-.0976447.0681758-.1818027.0125715-.29725.1184616-.4256448.2146814-.1105921.0826813-.2416842.1407033-.3603684.2141978-.0566447.0338461-.1149079.0696263-.1591447.1145934-.1666974.1745494-.3285395.353934-.5162763.5565274.0793026-.0014505.1273157.0019341.1737105-.0043516.89175-.1165275 1.782421-.1392528 2.6676974.0357802.8960657.1764835 1.7317105.4825495 2.4734868.9781539.5594342.3742417 1.0778684.7852307 1.4673684 1.3103296.1985263.2678682.3851842.5400879.5243684.8389011.1262369.2698022.2945527.5246154.4159342.7953846.1990658.4462858.3646843.908044.3673816 1.391077.0032369.5294505.031829 1.0598681-.1143684 1.5873846-.0744474.2669011-.1068158.5458901-.2330526.8021538-.0588027.1174945-.1370263.2272528-.2066184.3403956-.1499737.2446594-.2934737.4917363-.5054869.7001319-.2578684.2557802-.5027895.5231648-.7773816.763956-.205.1798682-.4450658.3297583-.6743421.4878682-.3323158.2272527-.6640921.4525714-1.0276973.6440439-.2244211.1184616-.4439869.2562638-.6581579.394066-.0372237.0236923-.0749869.0507692-.1176053.0633406-.3263816.0933187-.5982763.2775385-.8960658.4196923-.1262368.0599561-.2486974.1373187-.4245658.0560879-.0787631-.0362637-.234671.0294946-.33825.0768792-.3447237.1566593-.6996973.2852747-1.064921.3940659-.0771448.0232088-.1661579.0145055-.2238816.0174066zM28.7738539 8.36381978c.1618422.1407033.3603685.26786813.5820922.36747253.0404605.01789011.060421.07446154.0857763.11556044.1990658.32202198.3970526.64501099.5955789.96751648.0064737.0116044.0178026.02175824.0269737.03287912.2503158.28043955.5011711.56136265.7746842.86791205.0544869-.0120879.1456579-.0203077.2255-.0522197.2578684-.1044396.5017105-.2374066.7660526-.3239561.5993553-.1967912 1.1814474-.45015383 1.8320527-.50334064.4472237-.03674726.8922894-.10105495 1.3400526-.11942858.7968026-.0323956 1.5876711.02465935 2.3526447.24417583.4768948.13683519.9473158.28914289 1.4198948.43806589.0561052.0178902.1154473.0449671.1548289.0836484.0658158.0652747.134329.1049231.23575.1058901.0431579.0004835.0900921.0198242.1278553.0410989.3350131.1861539.6840526.3563517.9991053.5666813.4553157.3050989.8820394.6435605 1.1625657 1.1004835.0172632.0294945.0474737.0531869.0744474.0759121.2713553.2316044.4175526.5342857.5788553.8272967.0965658.176.2055394.3481319.2853816.5299341.0895526.2016264.1607631.410989.2238815.6213187.1197632.4013187.2492369.8021538.3306974 1.2107253.0463947.2335384.1494342.4781978.0269737.7247912-.0118684.0241758.0210395.0947692.0442368.0991208.113829.0227253.1078948.0991209.1224606.1726154.0906315.4617583.1888157.9215824.2735131 1.3833407.0447763.2451428.0927895.4936703.0053947.7417143-.01025.030945-.0043157.0681758.0016185.1010549.0507105.2557802.0998026.5110769.1548289.7658901.0366842.1706813.0906316.3384616.1181448.5096264.0097105.058989-.03075.1266813-.0588027.1861538-.0480131.0996044-.0264342.1730989.0668948.2523957.0334473.0280439.0588026.0768791.0652763.1184615.0663552.4124395.1354079.8248791.1871973 1.2392527.0205.1672967.0021579.3389451-.0053947.5081759-.0043158.1092747-.0188816.2103296.0631184.3123516.05125.0633407.0755263.1552088-.0404605.2282198-.0830789.0527033-.0404605.1523077.0151053.2021099.09225.0821978.1213815.1818022.1030394.278989-.0302105.1585934.0091711.3167033-.0188815.4781978-.0237369.1344176.0393815.2804396.0588026.4221099.0118684.088.0172631.176967.019421.265934.001079.0469011.03075.1184616-.0766052.1068572-.001079.0469011-.0021579.0938022-.0037763.1450549-.0339869-.0072527-.0927895-.0203077-.165079-.0352967-.1413421.3234726-.2400658.6387253-.1845.9897583.0388421.2480439.0226579.5033406.03075.7557362.0005395.027077-.0151052.0594726-.0021579.0797803.1256974.1992087.0264342.3998681.0080921.6000439-.0172631.1963077-.0242763.3935824-.03075.5903736-.0016184.0594726-.0199605.0817143-.0841579.1145934-.07175.0362638-.111671.1223297-.060421.2146814.0334473.058989.0490921.1266813.0803816.2132307-.0685132.0043517-.1219211-.0029011-.1656185.0125715-.1327105.0473846-.2643421.0933186-.2891579.249978-.0264342.1672967-.1656184.2852747-.2799868.4027692-.1979868.2035605-.2373684.4520879-.2967105.6967473-.011329.045934.0140263.1092747.0447763.1518241.0733684.1034726.1569868.2016264.2433026.2983297.1089737.1199121.2244211.234989.3555132.3723077-.2109342.0672088-.2956316.1938901-.3398684.352967-.011329.0415825-.0490921.086066-.0884737.1102418-.1370263.0831648-.1839606.1982418-.21525.3399121-.0361448.1624615-.1186842.3167033-.1791053.4694945-.3609079.0348132-.7056316.0203077-1.0525131.1880879-.2923948-.1774505-.6139211-.3592527-.9187237-.5623297-.1699342-.1136263-.308579-.264-.4644869-.3930989-.0954868-.0792967-.1866579-.1716483-.2988684-.2224175-.4218684-.1909891-.5799342-.542022-.716421-.909011-.0334474-.0875165-.0534079-.1793847-.0787632-.2693187.0161842-.0087033.0323684-.0169231.0485526-.0256264.0415395.0391648.082.0778462.1467369.1392528-.0776842-.2915605-.1440395-.5555605-.2190263-.8166594-.0269737-.0923516-.0134869-.161978.039921-.249011.0528684-.0894505.0776842-.2093626.0647368-.3109011-.0334473-.2572307-.0987236-.5105934-.1429605-.7668571-.0496316-.2833407-.0965658-.5666813-.1327105-.850989-.0496316-.3916484-.0965658-.7852308-.1294737-1.1783297-.0345263-.4230769-.0490921-.8480879-.0760658-1.2711648-.0372237-.5927912-.0658158-1.1865495-.1208421-1.7783737-.0426184-.4622417-.1062763-.924-.1855789-1.3818901-.1321711-.7552527-.2826842-1.5085714-.4305-2.2614066-.0782237-.4037362-.1888158-.8026373-.246-1.2078241-.0480132-.3394286-.165079-.6614506-.257329-.9892748-.0879342-.3070329-.1693947-.6334066-.3490395-.8988571-.2578684-.3814945-.3824868-.8156923-.6613947-1.1846154-.2395263-.3162198-.5103421-.6024615-.91225-.7523516-.4795921-.1784176-.9661974-.2151649-1.4662895-.0362638-.521671.1871209-1.0125921.4225934-1.4603552.7228572-.236829.1581099-.4644869.3403956-.6479079.5463736-.1532105.1721319-.3150527.3413626-.4493816.5265494-.0474737.0652748-.0528684.1542418-.0793026.232088-.062579.1813186-.1154474.3582857-.1122106.5574945.0026974.2001758-.0739079.4013186-.1154473.602945-.011329.0531868-.0275132.1054066-.0361448.1590769-.0264342.1677803-.0269736.3418462-.0793026.5038242-.1704737.527033-.0588026 1.0255385.1569868 1.5172747.0361448.0826814.0663553.1677803.0960264.2519121.1445789.4105055.2821447.821978.4331973 1.2290989.1774869.4791649.3371711.9607473.4358948 1.4578022.0210394.1078242.0555658.2127473.0787631.3191209.0231974.1063736.0404606.2127473.0582632.3196044.0053947.0338462-.0043158.0701099.0070131.1025055.1181448.3287912.1267764.6677363.1256974 1.0090989-.0005395.175033.0312895.3495824.0366842.5250989.0026974.087033-.019421.175033-.03075.263033-.0167237.1213626-.0609605.2461099-.0442368.3636044.0372237.2572307.0032368.5076923-.0760658.7494505-.0760658.2335385-.0539474.4922198-.2244211.7020659-.1046579.1290989-.15375.2736704-.1564473.4370989-.0016185.0841319-.0555658.1677803-.0879342.2504616-.0151053.0386813-.0539474.0763956-.0501711.1121758.0172632.1876044-.1078947.3384615-.152671.5091429-.0016185.0067692-.0026974.0145055-.0064737.0198241-.0588027.0850989-.1381053.1634286-.1710132.2557803-.0334474.0928351-.0248158.2001758-.0275131.3012307-.0026974.0667253-.0059343.1378022.0161842.2001759.0782236.2282197.1780263.4506373.2465394.6807912.0668948.2238681.1095132.4545055.1532106.6827252.0097105.0498022-.0059342.1141099-.0350658.1585934-.0776842.1145935-.0534079.2316044-.0490921.3549011.0053947.1822858.0215789.3872967-.0620395.541055-.0976447.1808352-.2999474.3162198-.452079.4748132-.2335921.2441758-.5335394.2137143-.8367236.1668132-.2589474-.0396484-.5195132-.0812308-.7752237-.1339341-.09225-.0188571-.1704737-.0962198-.2616448-.1083077-.1623815-.0212747-.3296184-.0135385-.4952368-.0178901-.0598816-.0004835-.1300132.0169231-.1780263-.0043517-.2713553-.1213626-.5783158-.1566593-.841579-.2988131-.2163289-.117011-.4504605-.2079121-.6829736-.2978462-.27675-.1073407-.6241711-.4221099-.7552632-.6778901-.1078947-.2122637-.2335921-.4172747-.2681184-.6517802-.0458553-.3050989-.1051974-.6097143-.1143684-.9157802-.0059343-.1789011.0830789-.3582858.1132894-.5396044.0900921-.5473407.1828816-1.0941978.2551711-1.6425055.070671-.5434726.1461973-1.0888792.1699342-1.6352528.0420789-.9491428.0701316-1.9011868-.0787632-2.8483956-.0641973-.4114725-.2006842-.8084395-.3387894-1.202989-.1688553-.4825494-.3668421-.9578462-.5173553-1.4437802-.1472763-.4728791-.247079-.9578462-.2740526-1.451033-.0134869-.2243516-.0436974-.4491868-.0463948-.674022-.0016184-.3065494-.0005394-.6145494.0285921-.9196483.0453158-.4772308.1068158-.9525275.1791053-1.4263736.0782237-.5144616.1855789-1.0245715.2621842-1.539033.0458553-.3104176.0663553-.6247033.0803816-.9385055.0134868-.3065495.0043158-.615033.0037763-.9215824-.0005395-.0754286.0021579-.1518242-.0118684-.2253187-.0598816-.2905934-.0026974-.5676484.0938684-.8437363.0264342-.074945.0658158-.1290989.1186842-.1890549.0674342-.07687913.1186842-.18035166.1321711-.27705495.019421-.1465055.1084342-.2432088.2341315-.30945055.0809211-.04254945.1256974-.088.1461974-.16681319.0593421-.22628572.1861184-.38971429.4634079-.44435165.0960263-.01982418.175329-.10443956.2611053-.16052747.1607631-.1054066.3360921-.16778022.5281447-.22483517.2379079-.07107692.4860658-.05221978.718579-.12232967.0372236-.01063736.0868552.01595605.1305526.01789011.0609605.0029011.1224605-.00096703.1996052-.00241758zM22.1732316 28.2356703c.0064737.2170989.1499737.3829451.2713552.5521759.1019606.1440879.236829.2688351.3522764.4051868.091171.1083077.0739079.1083077-.031829.2137143-.0836184.0817142-.1586053.1871208-.1871974.2925274-.029671.1078242-.0836184.1643956-.1904342.2074286-.060421.0232088-.1343289.0618901-.1580658.1121758-.0998026.2117802-.3199079.2833407-.521671.3727912-.1154474.0517363-.2098553.1097583-.2411447.2238682-.0226579.0846153-.0852369.1083077-.1688553.1083077-.175329 0-.3511974.0087033-.5259869-.0033847-.0695921-.0038681-.1456578-.0406153-.2017631-.0821978-.1828816-.1344175-.3770921-.249011-.5788553-.3607033-.205-.1121758-.3905789-.2635164-.5535-.4225934-.4812105-.469978-.6338816-1.0598681-.7191184-1.6695824-.0598816-.425011-.0237368-.850022.0161842-1.2721319.0561053-.5855384.1359474-1.1705934.2233421-1.7537142.0771448-.5144616.1801842-1.026022.267579-1.5395165.0490921-.2823736.0895526-.5666813.132171-.8505055.0992632-.6633846.2012237-1.3277363.2945527-1.9925714.039921-.2847913.0749868-.5705495.0884736-.8563077.0248158-.5333187.0474737-1.0666374.0426185-1.598989-.0043158-.4235605-.0517895-.8476044-.0787632-1.2711649-.0210395-.3399121-.0372237-.6803077-.0598816-1.0207033-.0080921-.1083077-.0383026-.2146813-.0453158-.323956-.0625789-.8606594-.0361447-1.7222857.0679737-2.5790769.0906316-.746066.3204474-1.4611869.6964605-2.1352088.0674343-.1213627.1715527-.2253187.2535527-.3413627.0480131-.0681758.082-.1440879.1262368-.2146813.0323684-.0512527.0647369-.1063736.1089737-.1474725.1165263-.1092747.2114737-.2185495.2557105-.37665936.1111316-.396.7158816-.87274726 1.2569737-.84035165.2438421.01450549.4914605.01789011.7266711.06624176.1569868.0323956.3155921.11507692.4385921.21032967.2735131.21226373.4752763.47626373.5891052.79054948.123.3399121.1354079.6827252.0269737 1.0260219-.0588026.1837363-.0917105.3626374-.0944079.5584616-.0059342.4351648-.0663552.8703297-.101421 1.305011-.0097106.1165274-.0140263.2330549-.0151053.3495824-.0026974.2920439-.0064737.5840879.0005395.8761319.0016184.0865494.0383026.1726153.0582631.2591648.0134869.059956.0399211.1218461.0350658.1803516-.0242763.3133187.0793027.6106814.1359474.9123956.0933289.4922198.17425.9883077.31775 1.4689231.0965658.321055.0971053.6479121.1666974.9689671.0615.2852747.0544868.5831208.0582631.8761318.0053948.4293627.0070132.8592088-.0151052 1.2880879-.0151053.2847912-.0620395.5705495-.1192237.8519561-.0793027.3964835-.1526711.7963516-.2810658 1.1802637-.1796448.5352528-.3571316 1.0763077-.7428553 1.5332308-.0226579.0270769-.0420789.058022-.0566447.088967-.1402632.322989-.3128948.6324396-.4278026.967033-.154829.4482198-.3781711.8746813-.6435922 1.2842198-.388421.6000439-.5394736 1.2455384-.3485 1.9335824.0188816.0691428.0712106.131033.1084343.1963077l-.0086316-.0072528zM20.9141 4.16114286c-.0879342.01208791-.1542895.02175824-.2314342.03287912-.0188816-.04303297-.0496316-.08026374-.0469342-.11507693.0172631-.18083516-.1111316-.28865934-.2395263-.39551648-.1677764-.13876923-.3441842-.2698022-.5092632-.41098901-.0814605-.07010989-.1548289-.14602198-.1192237-.26931868.0151053-.05173626-.0134868-.11942857-.0377631-.17406593-.0496316-.11362638-.1046579-.22628572-.1666974-.3341099-.0528684-.09235164-.0323684-.15617582.0636579-.20694505.123-.06527473.1812631-.1701978.2271184-.28237363-.0938684-.05753846-.1774868-.10830769-.2816053-.17164835.1337895-.06720879.2379079-.11797802.3414869-.16923077.0053947-.04061538.01025-.08026373.0172631-.13054945.1235395-.00096703.2535527.01208791.287-.13925275.0070132-.03287912.0809211-.07784615.1213816-.07591208.1764079.00870329.2389869-.10975824.3301579-.21613187.1046579.02514286.1969079.09621978.3323158.04061538.1122105-.04593406.1278553-.09573626.1165263-.18663736-.0129473-.09863736-.0167237-.19824176-.0291316-.34378022.1143685.07397802.1904343.1232967.2756711.17841758.0323684-.04303296.0652763-.08606593.1025-.13635164.0528684.0091868.1035789.01692307.1542895.02562637.0771447-.06237363.1440394-.14021978.2325131-.17986813.0604211-.02707693.165079-.02127473.2244211.00967033.0971052.04931868.1715526.1349011.2589474.19872527.0453157.03336264.1057368.08364835.1488947.07736264.2648816-.04496703.3905789.1290989.5103421.27415384.0814605.09767033.0954868.2403077.1386447.36215385.031829.09041758.0582632.1818022.0911711.27173626.0323684.08509891.1051974.08219781.1925921.05463737.0771447.18663736.205.35151648.2130921.55846154.0016184.04593406.0485526.10927472.0949474.13103296.1451184.06769231.1764079.19002198.1823421.30896704.0145658.2963956.1176052.55797802.3226052.79103296.0442369.04931868.0377632.05415385-.0010789.16246154-.1791053-.06914286-.1710132-.3138022-.4040658-.34378022-.0739079.16971429.1845.32153846.0404605.49221978-.0917105-.02707692-.1764079-.05173626-.2826842-.08268132-.0275131.14263737.041.24901099.1014211.35296704.0701315.1203956.111671.23934066.0426184.40083516-.1062763-.088-.205-.16826374-.3069605-.25142857-.1478158.15859341-.0242764.3021978-.0199606.4516044-.0868552-.03529671-.1586052-.0643077-.2406052-.09718682-.0431579.08123077-.0776842.14505495-.123.23015385-.0976448-.11410989-.1823421-.21371429-.2670395-.31186813-.1370263.03287912-.1839605.08461538-.17425.20984615.0053947.07494505.0485526.18953846-.0814605.26206593-.0253553-.0381978-.0436974-.0734945-.0690527-.10347252-.1532105-.18131868-.3031842-.36505495-.5923421-.38391209-.0712105-.00435165-.1408026-.04448352-.2093158-.07156044-.0976447-.03771429-.1898947-.08268132-.3053421-.03674725-.060421.02417582-.2848421-.08026374-.3425658-.14553847-.0275131-.03142857-.0496315-.06624175-.0830789-.1116923zM59.9880171 23.0872352c-.0156447.016923-.0318289.0338461-.0474737.0512527.0329079.0256264.0647369.0502857.0971053.0763956.0161842-.0183736.0480131-.0498022.0447763-.0531868-.0280526-.028044-.0620395-.0507692-.0944079-.0744615m2.87.3007472c.0205-.0024176.041-.0048351.0609605-.0067692-.0285921-.3558681-.0577237-.7122198-.0879342-1.0888791-.1111316.0362637-.2130921.0705934-.2929342.0962197-.0178026.1102418-.0566447.1992088-.0377631.276088.0248157.0981538-.0231974.2446593.1704736.2717362.0361448.0043517.0706711.0792967.0879342.1266813.0388422.1068572.0674343.2166154.0992632.3249231m-1.2165132-.7218901c-.2627236.0106374-1.0336315.2166154-1.19925.3133187.0226579.1247472.062579.250945.0652764.3785934.0032368.1150769.0895526.2465934-.0695921.3785934-.001079-.1271648-.0016185-.2224176-.0026974-.3167033-.165079-.000967-.175329.0909011-.1888158.1871209-.0356053-.0536703-.0647368-.0971868-.1122105-.1687473.0350658.3877803.1758684.4535385.4563947.4448352.1564474-.0043517.3139737-.0367473.4655658-.072044.2001447-.0469011.3706184-.1363516.4536974-.3205714.0377631-.0817143.0641973-.1711648.1192237-.2427253.1505131-.1958241.0895526-.3877802.0124078-.5816703m8.9579606 4.9512088c.0771447.0077363.1596842.0019341.2325131.0236923.4849869.1445714.9802237.2567473 1.4846316.322989.2659605.0348132.5416316.0062857.8119079.0203077.1505132.0077363.3010263.0367473.4472237.0686594.3355526.0744615.6808158.0362637 1.0142105.0773626.2427632.0304615.4337369-.0850989.6581579-.0860659.1693947-.0009671.3420263-.0352967.5076447-.0749451.3145132-.0754286.6203948-.1914725.9392237-.2417582.277829-.0435165.5011711-.1861539.7590395-.263033.3042632-.0923517.5880263-.2427253.8755658-.3761758.1208421-.0560879.1451184-.132.1397237-.2963956.2238816-.0367473.439671.161978.7045526.0038681.0183421.0207912.0442369.0551209.072829.088.0690526.0773626.1510526.1073407.2616447.0686593.0485526-.0174066.1046579-.0164395.1580658-.0246593.1979868-.0304615.3328552.0377143.470421.1755165.236829.235956.349579.5260659.5027895.7987692.0447763.0802637.0404605.1436044-.0064737.2287033-.0841579.1518242-.1413421.3157363-.2012237.4772308-.0183421.0493187-.0086315.1073406-.0118684.1614945-.0129473.2238681-.0140263.4525714-.2114737.6261538-.0258947.1934066-.2762105.2596484-.3193684.4501539-.009171.0386813-.1235395.0701099-.1942105.0817143-.0981842.0164395-.1580658.044-.1979869.1387692-.0323684.0754286-.1294736.1271648-.1796447.1987253-.0739079.1058901-.1645395.1856703-.2697368.2103296-.052329.1363517-.1132895.2485275-.13325.366022-.0124079.0763956.0345263.161011.0571842.2514286-.0329079.0696264-.1100527.0314286-.1737105.0401319-.0566448.0072527-.1251579.0154725-.1634606.0473846-.1089737.0957362-.224421.191956-.3010263.3065494-.0787631.1184616-.1898947.1523077-.3199079.1924396-.1737105.0527033-.357671.1092747-.4968552.2093626-.1068158.0759121-.1521316.2219341-.2454606.3703736-.0528684.0203077-.1548289.0609231-.2578684.0981539-.0895526.0323956-.13325.0909011-.1251579.176.0097105.1058901-.0555658.1416703-.1602237.1600439-.7234342.1286154-1.4425526.2707693-2.1751579.3568352-.4272631.0507692-.8480526.0623736-1.2753158.0435165-.2352105-.0101539-.4747368.0164396-.7077894-.0058022-.6123027-.0585055-1.220829-.1552088-1.8342106-.2016264-.9187236-.0710769-1.6475526-.4806154-2.3402368-.9786373-.5988158-.4312967-1.1210263-.9322198-1.5817368-1.4756924-.3425658-.4042197-.7590395-.7460659-1.1010658-1.145934-.2832237-.3312088-.5702237-.6619341-.821079-1.0124835-.4197105-.586989-.8173026-1.187033-1.2132763-1.7875605-.1974474-.2997802-.3700789-.6116483-.5572763-.9225494-.05125.0067692-.0949474.0130549-.1327105.0193406-.0091711.0207912-.021579.0333627-.0188816.044.0442368.2021099-.1030395.3626374-.1494342.5449231-.0231974.0923517-.0771448.1774506-.1057369.2683517-.0739079.2340219-.142421.469011-.214171.7035164-.0053948.0193407-.0097105.0449671-.0248158.056088-.2346711.1726153-.3776316.4138901-.5783158.6092307-.082.0792967-.2190263.1155605-.2778289.2262857-.0064737.0125715-.0205.0227253-.0231974.0357803-.0118684.0560879-.0469342.1242637-.0258948.1682637.0404606.0836483.1267764.0483516.1985264.0222418.0124079-.0043517.0291315-.0009671.0857763-.0029011-.0598816.0725274-.0960263.1378022-.1521316.1818022-.2853816.2262857-.5723816.4511208-.8647763.6687033-.2789079.2083956-.5605132.412923-.8496711.6092307-.1165263.0792967-.2546315.132-.4094605.2108132-.0453158.0788132-.1030395.1871209-.1715526.2881758-.0205.0299781-.0695921.0546374-.1100527.0628572-.1683157.0328791-.2605657.1455384-.3625263.2543296-.050171.0536704-.1224605.1112088-.1942105.1242638-.1451184.0261099-.2244211.1058901-.2708158.2151648-.0431579.1005714-.1089737.1498901-.2281974.1735824-.0987236.0198242-.2087763.0546374-.2519342.1556923-.0161842.0391649-.0124079.0855825-.0215789.1513407-.4752763.0778462-.97375.1590769-1.4927237.2446593-.0426184.0894506-.1256974.1232967-.2632632.1005715-.0803815-.013055-.1747894.0352967-.2616447.0580219-.0647368.0169231-.1289342.0381978-.2006842.0589891-.0582632-.0473847-.1132895-.0928352-.1645395-.1353847-.0776842.0111209-.1494342.0183737-.2190263.0314286-.0561053.0111209-.1370263.0145055-.1591447.0473846-.0426185.0633407-.0960263.058022-.1559079.0560879-.1062763-.0033846-.2136316-.000967-.3182895-.015956-.1532105-.0232088-.2929342-.0319121-.4423684.0396483-.0598816.0285275-.1904342.0019341-.2481579-.0415824-.1321711-.0996044-.2810658-.0986373-.4294211-.0971868-.2751315.0024176-.5340789-.0420659-.7935658-.1252308-.1569868-.0507692-.3004868-.1643956-.490921-.1281318-.0312895.0058022-.0755263-.0381978-.1116711-.0618901-.0668947-.0444835-.132171-.0894506-.19475-.132-.1591447.088-.2098552.0875165-.347421-.0077363-.0663553-.0464176-.1359474-.0918681-.1888158-.1494066-.1564474-.1697143-.3706184-.2301538-.5982763-.2712527-.0366842-.0058022-.0782237-.0111209-.1068158-.029011-.1985263-.1208791-.3954342-.2427253-.5885658-.3698901-.0609605-.0401319-.1068158-.0971868-.1607632-.1455385-.0798421-.0715604-.1650789-.1378022-.2384473-.2137143-.0749869-.0759121-.1370263-.1605275-.2076974-.2398242-.0841579-.0933186-.1710132-.1847033-.2589474-.2756044-.0242763-.0251428-.0615-.0410989-.0846973-.0667252-.1003421-.1102418-.2055395-.219033-.2950921-.336044-.0663553-.0875165-.1116711-.1885714-.1688553-.2876923-.0436974-.0275604-.1051974-.0609231-.1575263-.1025055-.113829-.088967-.2244211-.1818022-.3350132-.2751209-.2179473-.1818022-.4353552-.3631208-.6479079-.5487912-.0269737-.0232088-.0242763-.073011-.0490921-.1561758.3069606.2025934.4650263.4781978.7633553.6764396-.0086316-.0628572-.0021579-.0967033-.0178026-.117011-.1915132-.2369231-.3884211-.4704616-.462329-.7644396-.0016184-.0067692-.0037763-.0145055-.009171-.0188571-.1898948-.161978-.2384474-.3887473-.339329-.5908572-.0944079-.1885714-.1753289-.382945-.2627237-.573934-.0615-.1339341-.1041184-.2799561-.1920526-.3974506-.1062763-.1426373-.1521316-.2959121-.1963684-.4545055-.042079-.1455384-.0841579-.2925275-.1397237-.4337143-.0296711-.0744615-.082-.1455384-.1397237-.2074285-.0965658-.1025055-.2228026-.1194286-.3441842-.0401319-.0954868.0623736-.17425.146989-.3026447.2581978-.0151053-.0241758-.042079-.0570549-.0566448-.0938022-.0852368-.219033-.1758684-.4366154-.2508552-.6585495-.1122106-.3331428-.2201053-.6658021-.27675-1.0124835-.0485527-.2910769-.0641974-.5797362-.0658158-.8741978-.0021579-.3254066-.0447763-.6512967-.0679737-.9771868-.0037763-.0536703.0075526-.1083077.0048552-.162945-.0064736-.1141099-.0178026-.2291869-.0258947-.3432967-.0097105-.1208792-.0231974-.2427253-.0253553-.365055-.0032368-.1668132.0091711-.3312088-.0679736-.4946373-.052329-.1097583-.0766053-.2398242-.072829-.3597363.0129474-.4366154.01025-.8770989.0760658-1.3083956.0690526-.4511209.1731711-.9003077.3517368-1.3316044.0469343-.1155605.0615-.2403077.1078948-.3549011.0906316-.2243517.1845-.4467692.2923947-.6633846.2638027-.5284835.5383948-1.0501978.8448158-1.5617583.390579-.6517802.8021974-1.2914725 1.2451053-1.9147252.615-.8635605 1.2278421-1.7309891 1.9507368-2.5273407.2341316-.25819781.4839079-.50624176.7536448-.73349451.2454605-.20742857.521671-.38826374.7962631-.56474725.1532105-.09912088.3296184-.17068132.4984737-.24804396.2778289-.1261978.5556579-.25432967.8388816-.36892307.3846447-.15569231.7919473-.25046154 1.2100394-.29881319.4693422-.05367033.9386843-.08751648 1.4161185-.05995605.4822894.02804396.9564868.08364836 1.4242105.18712088.3549737.07736264.70725.15762638 1.0104342.3578022.0776842.05221978.1764079.07978022.2681184.11265934.31775.11701099.6360395.23402198.9548684.34668132.1677764.0585055.3139737.1349011.4207895.27028572.0868553.11024175.1979869.20597802.277829.32057142.0917105.1290989.1699342.26786814.2389868.40905495.0631184.13103297.1041184.2698022.2503158.3563516.0339868.0198242.0663553.0933187.0517895.1223297-.082.1556923.029671.2644835.1073552.3756923.0485527.0705934.0895527.1281319.0873948.22-.0064737.2088791.0841579.410989.0701316.6251868-.0053948.0942858.0679736.1914726.0900921.2905934.0086315.0372308-.0140264.1078242-.0453158.1218462-.1192237.0536703-.082.1286154-.0615.2108132.0280526.1107253.0900921.2195165.0183421.337978-.0302106.0502857-.0221184.117011-.1176053.132967-.0329079.0053187-.0615.0836484-.0728289.1315165-.0372237.1532747-.0733685.2992967-.2977895.3075165-.0302105.0014506-.0615.0362637-.0873947.0599561-.1451185.1276483-.2907764.2552967-.4294211.3887472-.0242763.0222418-.0167237.0710769-.0296711.1402198-.07175-.0314286-.1391842-.0536703-.1963684-.088-.0733684-.044967-.1381052-.1005714-.2071579-.1508572-.3501184-.2548131-.7353026-.4545055-1.1555526-.603912-.1472763-.0536704-.2848421-.1261978-.4267237-.1909891-.5119605-.2383736-1.0606052-.3703736-1.6275921-.4530549-.3085789-.0444835-.6106842-.0357802-.890671.1025055-.2362895.1155604-.4218685.2857582-.5783158.4791648-.1203027.1484396-.23575.2949451-.3808685.4298462-.1888157.176-.3905789.3602198-.4450657.6256703-.0161843.0812308-.0938685.1547253-.1483553.2282198-.0954868.1281319-.2303553.2436923-.2843026.3839121-.0631185.1634286-.1936711.2746373-.288079.4124395-.0658158.0957363-.1613026.175033-.2438421.2615825-.0145658.0154725-.0350658.031912-.0388421.0502857-.0523289.2383736-.2632632.3872967-.3954342.5811868-.083079.1213626-.1440395.2548132-.2228026.3790769-.1337895.2108132-.2718948.4192088-.4121579.6271209-.0183421.0270769-.0544869.0459341-.0846974.0652747-.1138289.0734945-.1861184.1639121-.2330526.2876923-.0593421.1542418-.0868553.337978-.3069606.4066374-.05125.015956-.0852368.0918681-.1132894.1445714-.031829.0604396-.0577237.1247473-.0706711.189055-.0544868.2698022-.2751316.4835164-.3042631.762989-.0075527.0725274-.0841579.1382857-.1235395.2098461-.0496316.0894506-.0987237.1793846-.1364869.2727033-.060421.145055-.1176052.293011-.1650789.4414506-.0598816.1885714-.1111316.3795604-.1623816.5700659-.0253552.0981538-.0555658.1977582-.0609605.2973626-.0167237.2997803-.0226579.601011-.0312895.9017583-.0059342.176967-.0016184.3553846-.0221184.5304176-.0091711.0754285-.0534079.1595604-.1095132.2170989-.1208421.1266813-.1661579.2702857-.1931315.4293626-.0906316.5328352.0442368 1.0366593.2255 1.5322637.234671.6445275.5146579 1.2726154.890671 1.862022.0836184.1305495.1785658.2552967.2805263.3747253.2087763.2446593.4240263.4844835.6381974.7252747.1294737.1455385.2810658.2669011.4650263.3578022.0798421.0386813.1467369.0976703.2222632.1445714.1176052.0715605.2379079.1402198.3787105.2224176-.0474737.0725275-.1078947.1624616-.1801842.2722198.4634079.2557802.9764474.352967 1.4905658.3578022.5076447.0048352 1.0320131-.0101538 1.5099868-.2591648-.0178026-.0444835-.0426184-.1073407-.082-.2083956.2454605.1141099.4499211.059956.6549211.0125714.1181447-.0270769.2373684-.0493187.3555131-.0744615.0296711-.0058022.0620395-.0087033.0863158-.0222418.1925921-.1102418.3787105-.2311209.5761579-.3321758.2222632-.1141099.4445263-.2272528.6387369-.3781099.1267763-.0971868.255171-.1948572.3646842-.307033.050171-.0512527.0846973-.1382857.080921-.2054945-.0178026-.2615824-.0550263-.5226813-.0841579-.7842637-.0048552-.0473846-.019421-.0981539-.0075526-.1421539.0803816-.3123516.0253553-.6329231.0863158-.9476923.0588026-.3094505.0793026-.6247033.13325-.9351209.0291316-.1668131.0938684-.3278241.1515921-.5226813-.0944079.0120879-.1774869.0241758-.2616448.0343297-.0900921.0111209-.1888157.0488352-.2681184.0280439-.3096579-.0817142-.6214737-.0130549-.9311316-.0333626-.2805263-.0183736-.562671-.0280439-.8437368-.0420659-.2433026-.0120879-.4871447-.0154726-.7288289-.0396484-.2325132-.0246593-.4607106-.0904176-.6937632-.1034725-.4051447-.0227253-.7800789-.1701978-1.1814474-.2045275-.1267763-.0106373-.2481579-.0604395-.3743947-.0875165-.1623816-.0343296-.3263816-.0623736-.4893026-.0952527-.0739079-.0154725-.1521316-.0270769-.2190264-.057055-.2433026-.1087912-.4876842-.2166153-.7212763-.339912-.3350131-.176-.5335394-.4612748-.7142631-.7567033-.0544869-.0884836-.1046579-.1789011-.1645395-.2814066.0722895-.0227253.1402632-.044.2174079-.0681759-.0145658-.0483516-.0275132-.0933186-.0350658-.1213626.0798421-.0991209.1515921-.1885714.2314342-.2862418-.0205-.1305494-.2098552-.2253186-.1181447-.4042197.0976447.0188571.2033816.0386813.3107368.0594725.0026974-.1058901.0026974-.1058901-.1073552-.2137143.1818026-.0643077.3609079-.1281319.5540394-.1972747-.0248158-.0667253-.0480131-.1276484-.0749868-.2016264.0609605-.030945.1240789-.0628571.2001447-.1025055-.0178026-.044967-.0345263-.0870329-.0566447-.1421538.0372237-.0145055.0830789-.0493187.11275-.0406154.2681184.0778461.5071053-.0256264.7520263-.087033.1251579-.030945.2476184-.0715604.3711579-.1068571.1143684-.0323956.2157895-.042066.3085789.0575384.1100527.1208792.2794474.0754286.4256448.0938022.082.0101539.1618421.0314286.2638026.0522198.0868553-.1286154.2691974-.1203956.4294211-.1228132.2880789-.0038681.5793947.0029011.8626184.042066.1154474.0154725.2217237.0352967.3393289.0227252.0879342-.0096703.175329.0043517.2438421.0797803.0766053.0850989.1861185.1073406.3107369.0870329.0879342-.0145055.1818026-.0087033.2718947-.001934.1613027.0125714.3172105.0101538.4715-.0473847.0668948-.0251428.1467369-.0236923.2211842-.0285274.1677763-.0106374.329079-.0261099.4882237-.0913846.185579-.0754286.3695395-.0918682.5896448-.0265935.2017631.0599561.449921.056088.6678684-.0401318.1569868-.0686594.3182894-.1295824.4758158-.1982418.2454605-.1054066.4957763-.1324835.7536447-.0377143.0345263.013055.07175.0203077.1192237.0333627.0264342-.0348132.0561052-.0647912.0728289-.0996044.0447763-.0918682.0976448-.1305495.2292763-.1489231.2044606-.0294945.3938158-.1363516.5918027-.2030769.1030395-.0348132.2125526-.0541539.3193684-.0797802.0793026-.0183737.1596842-.0333627.2389868-.0517363.3172106-.0701099.6333421-.1411868.9516316-.2103297.1467369-.0319121.2956316-.0609231.4439869-.088967.1062763-.0188572.1747894-.072044.2184868-.1614945.0377632-.0797802.113829-.1474725.0469342-.2456264-.0178026-.0261099-.0183421-.0667253-.0156447-.1000879.0183421-.2291868.041-.4583736.0593421-.6875604.0145658-.174066-.0151053-.3607033.0436974-.5212308.1041184-.2823736-.0118685-.5690989.0679736-.8480879.0140264-.0498022-.0377631-.1150769-.0593421-.1726154-.0237368-.0643077-.0652763-.1266813-.0685131-.1914725-.0080921-.1701978-.0048553-.3418462.0032368-.5125275.0091711-.204044.0291316-.4076044.042079-.6116484.01025-.1571428.0021579-.3104175-.082-.456923-.093329-.1643956-.1197632-.3355605-.0803816-.5236484.0528684-.2538461.0620395-.5159121.1138289-.7712088.0873948-.425978.19475-.8485714.3992106-1.246989.1472763-.2843077.275671-.5773187.4218684-.8621099.0695921-.1358681.1607631-.2625494.2503158-.40567031-.0620395-.06092307-.1219211-.11942857-.1952895-.19147252.03075-.06043956.0744474-.12474726.0965658-.19437363.0188816-.05802198.0463947-.08316484.1111316-.10879121.1596842-.06237363.285921-.15714286.2648815-.33991209-.0080921-.07252747.0372237-.11362637.1105921-.13683516.0722895-.02175824.1435-.04641758.21525-.07107693.1796448-.06092307.3258422-.13345054.4267237-.30751648.0927895-.15956044.2535527-.28769231.4909211-.33314286.2724342-.05270329.5286842-.17261538.7973421-.24852747.2206447-.06189011.451-.09670329.6743421-.15375824.1316316-.03336264.2567895-.08461538.3824868-.132.2950921-.11072527.5653685-.29010989.8922895-.31186813.3231447-.02127473.6176974-.11749451.9138684-.21564835.1337895-.044.2530132-.12474726.3868027-.17164836.3819473-.13248351.7719868-.24901098 1.1528552-.38681318.5912632-.21516484 1.1949342-.41098901 1.7608421-.67208791.821079-.37907693 1.6880132-.56909891 2.5959474-.65178022.4175526-.03723077.8388816-.06043956 1.2505-.13054945.5669868-.09621978 1.1366711-.07736264 1.7058158-.07929671.2557105 0 .5119605.05318682.7714474.08268132.070671.09912088.1435.20259341.2524736.35538462.0118685.08848351.0269737.24079121.0539474.39213186.0167237.09331869-.029671.14892308-.1170658.17309891-.369.10298901-.7104868.27560439-1.1064605.31718681-.2055395.02127472-.4002895.12184615-.6009737.18325275-.3668421.11265934-.7390789.2170989-1.1032237.33797802-.1882763.06285714-.3808684.13393406-.54325.23643956-.1564473.09815384-.2988684.23063736-.3743947.39551648-.0534079.11652747-.1397237.21854945-.1499737.35973627-.0059342.0850989-.1019605.18712087-.1893553.24030769-.142421.08848351-.183421.2229011-.2055394.34571428-.03075.1730989-.1591448.29107693-.2341316.4370989-.0965658.18953847-.3134342.30074726-.4240263.49125275-.0544869.09186813-.1974474.14215385-.3004869.21178022-.1764079.11846154-.3495789.24127473-.5313815.35296707-.0987237.060923-.2120132.102989-.31775.1552088-.0663553.031912-.1451185.0556044-.1931316.1034725-.1062763.1058901-.2594869.1436044-.3733158.2238681-.2362895.1634286-.534079.1730989-.7822369.3026813-.1273157.0657583-.2907763.072044-.4321184.1213627-.4299605.1503736-.8825789.2064615-1.3335789.2654505-.2249606.0314286-.4536974.0314286-.6802763.0507693-.0749869.0058021-.1505132.0261098-.2217237.0493186-.2492369.0807473-.329079.1895385-.3387895.4254945-.0064737.1489231-.0312895.2968792-.0442368.4453187-.0048553.0541539-.0107895.1112088.0016184.1634286.0485526.2233846.0523289.4482198.0291316.6730549-.0043158.0338462-.0059343.0686594-.0048553.1025055.0075526.3345934.0248158.6691868.0215789 1.0042638-.0021579.2151648-.039921.4298461-.0528684.645011-.0086316.1426373.0070132.2862417-.0021579.4288791-.0188816.3065494-.0474737.6121318-.0712105.9191648-.0129474.1605275-.0107895.1571429.164.2137143.4396711.1426374.8809605.1063736 1.3249474.0203077.2001447-.0391648.4040658-.0575385.6052894-.0894506.4218685-.0686593.8491316-.1058901 1.2429474-.2891428.1925921-.088967.4197105-.1184616.6295658-.1803517.1661579-.0488351.3663026-.0676923.4876842-.1639121.2589474-.2064615.6133816-.2301538.8755658-.4163076.0172632-.0125715.0415395-.0164396.0625789-.0232088.328-.1068572.6506053-.2287033.985079-.3147693.1737105-.0444835.296171-.1247472.4143158-.2446593-.0987237-.1479561-.2578684-.1508572-.4153948-.1436044-.1283947-.2224176-.0884736-.3012308.1683158-.3428132.1116711-.0174066.2233421-.0507692.3360921-.0556044.1483553-.0072527.2486974-.0860659.3166711-.1793846.1440395-.1934066.347421-.2683516.5885658-.3026813.2319737-.0323956.4623289-.0759121.6932237-.1150769.0021579-.056088.0037763-.0923517.0064737-.1542418.3301578.0135385.6500657.0212747.9683552.0415824.5103421.0328791 1.0190658.0778462 1.5288684.1121758.2584079.0169231.5184342.0164396.7763027.0357803.1035789.0072527.2103947.0348131.3053421.0734945.0436973.016923.0960263.0884835.0884737.1261978-.0242764.1261978-.0571843.2543296-.1186843.368923-.0841578.1581099-.0863157.218066.0609606.3341099.0453158.0362638.0965658.0657583.152671.1039561-.0199605.1755165-.0566447.3205714-.2853816.3911648-.2341315.073011-.4493815.1943736-.6759605.2872088-.3528158.145055-.7148026.2707692-1.0589868.4288791-.1823421.0826813-.3150527.2156484-.3501184.425978-.0285921.1687473-.1289343.3297583-.2109343.4883517-.0221184.0425494-.0927894.0647912-.142421.0971868-.0275132.1039561-.0550263.2137143-.0884737.3205714-.0070131.0222418-.0339868.0449671-.0582631.056088-.1564474.0672087-.2929343.1581098-.4358948.2436923-.111671.0681758-.1451184.1431208-.142421.2311208.0048552.1701978-.0593421.3036484-.1861185.4216264-.0107894.0096703-.0258947.0198242-.0280526.0309451-.029671.1798681-.1871974.2514285-.3414868.3258901-.0258948.0120879-.0679737.0236923-.0722895.0410989-.07175.2664176-.3501184.205978-.54325.2785055-.0188816.0072527-.052329-.0067693-.0641974.0029011-.1764079.1518241-.4224079.1416703-.6333421.2040439-.2335921.0686594-.3522763.2166154-.5081842.3834286.0895526.0241758.1559079.0415824.2222632.0594725.0005394.0101539.0016184.0203077.0021579.0304616-.2076974.0527033-.4148553.1097582-.6236316.1571428-.8944474.1996923-1.7883553.4008352-2.6849605.5923077-.6306448.1339341-1.2672237.2456264-1.897329.381978-.56375.1213627-1.1221053.2625495-1.6831579.3916484-.1256974.029011-.1828816.0759121-.193671.2083956-.0199606.2224176-.0965658.44-.1294737.6624176-.0609605.4187252-.1068158.8398681-.1623816 1.2595604-.0091711.0676923-.0388421.132-.0539474.1987253-.0118684.0522198-.0210394.1058901-.0221184.1590769-.0016184.1697143-.0016184.3389451.0021579.5086594.0021579.1010549-.0124079.2108131.0231974.3031648.0685131.1774505.1025.3636044.2211842.5304176.0944079.1315165.142421.2997802.1677763.456923.0253553.159077.1165263.2818902.2114737.3993847.080921.1000879.152671.1982417.2033816.3133186.07175.1648792.1370263.337011.244921.483033.1246184.1682637.2913158.3113846.44075.4665934.052329.0551209.113829.1058901.1542895.1682638.1278553.1987252.2837631.3674725.5119605.4835164.0782237.0396484.1321711.1203956.2017632.1866374M55.4362079 39.311244v-1.7087473h-.6953816v-.6121319h2.1708421v.6121319h-.6910658v1.7087473h-.7843947zm-7.7228355-.1461671l.3182894-.5357362c.0852369.0522197.2017632.1044395.3333948.1044395.1710131 0 .2880789-.0971868.2880789-.2610989v-1.4824615h.7838553v1.4930989c0 .5942417-.39975.8698461-1.0012632.8698461-.2524737 0-.5205921-.0488351-.7223552-.1880879zm2.1441921.1461671v-2.3208792h1.9647631v.6121319h-1.1803684v.2296703h1.1533947v.6126154h-1.1533947v.2538462h1.1803684v.6126154h-1.9647631zm2.1755894-1.1589891c0-.7170549.6133816-1.2005714 1.4252895-1.2005714.6791974 0 1.0212237.3553846 1.1765921.674989l-.6759605.2823737c-.0658158-.1813187-.2675789-.3379781-.5006316-.3379781-.3770921 0-.6295658.2572308-.6295658.5811868 0 .3239561.2524737.5816704.6295658.5816704.2330527 0 .4348158-.1571429.5006316-.337978l.6759605.2785054c-.1515921.3099341-.4973947.6783737-1.1765921.6783737-.8119079 0-1.4252895-.4869011-1.4252895-1.2005715zm-5.1097328 0c0-.323956-.2449211-.5811868-.6214737-.5811868-.3765527 0-.6209342.2572308-.6209342.5811868 0 .3239561.2443815.5816704.6209342.5816704.3765526 0 .6214737-.2577143.6214737-.5816704m-2.0386711 0c0-.7131868.6176974-1.2005714 1.4171974-1.2005714.8005789 0 1.4177368.4873846 1.4177368 1.2005714 0 .7136704-.6171579 1.2005715-1.4177368 1.2005715-.7995 0-1.4171974-.4869011-1.4171974-1.2005715m-.9755842-.3682945c0-.1257142-.124079-.1813186-.2567895-.1813186h-.4768947v.3655384h.4768947c.1327105 0 .2567895-.0556044.2567895-.1842198zm-.093329 1.5274286l-.3571315-.7310769h-.2832237v.7310769h-.7843948v-2.3213626h1.3821316c.6052895 0 .9322105.3621538.9322105.7973187 0 .3998681-.2605657.6121318-.4666447.7025494l.4698816.8214945h-.892829zm-2.4786657-1.5241406c0-.1252308-.1046579-.1847033-.236829-.1847033h-.4968553v.3655384h.4968553c.1321711 0 .236829-.058989.236829-.1808351zm-1.518079 1.5240439v-2.3208791h1.3821316c.6058289 0 .9322105.3616703.9322105.7968352 0 .4312967-.3263816.792967-.9322105.792967h-.5977369v.7310769h-.7843947zm-2.099146-1.1590374c0-.323956-.2443816-.5811868-.6209343-.5811868-.3770921 0-.6214736.2572308-.6214736.5811868 0 .3239561.2443815.5816704.6214736.5816704.3765527 0 .6209343-.2577143.6209343-.5816704m-2.0381316 0c0-.7131868.6171579-1.2005714 1.4171973-1.2005714.8000395 0 1.4171974.4873846 1.4171974 1.2005714 0 .7136704-.6171579 1.2005715-1.4171974 1.2005715-.8000394 0-1.4171973-.4869011-1.4171973-1.2005715zm-1.0648671 1.1586022V36.989978h.7843947v2.3208791h-.7843947zm4.0246894-.330145c0-.2016264.1904343-.3727912.4159343-.3727912.2249605 0 .4153947.1711648.4153947.3727912 0 .2016264-.1904342.3723077-.4153947.3723077-.2255 0-.4159343-.1706813-.4159343-.3723077zm-5.1015329-.8317451c0-.3133186-.2017631-.5463736-.6209342-.5463736h-.3770921v1.0961319h.3727763c.3921974 0 .62525-.2577143.62525-.5497583zm-1.782421 1.1623737v-2.3208792h1.157171c.8156843 0 1.4215132.4172748 1.4215132 1.1585055 0 .7412308-.6058289 1.1623737-1.4171974 1.1623737h-1.1614868zm-2.9801066-.953688v-1.3673846h.7962632v1.3427253c0 .2233846.162921.4008352.4855263.4008352.3182895 0 .48175-.1774506.48175-.4008352v-1.3427253h.7957237v1.364c0 .5778022-.4040658.9989451-1.2774737.9989451-.8739474 0-1.2817895-.4211429-1.2817895-.9955605zm-1.4340829-.6785186l-.25625.748h.5130395l-.2567895-.748zm.5594342 1.6318681l-.0933289-.2712527h-.9316711l-.0933289.2712527h-.8895921l.9554079-2.3208791h.9861579l.9559473 2.3208791h-.8895921zm31.1895632-6.1934593H22.9963066v10.4096263H59.8812013V33.1175429h-.7887105zm-35.3074737 9.7032087h35.3074737v-8.9967912H23.7850171v8.9967912z" id="a"/>
  </defs>
  <g fill="none" fill-rule="evenodd">
    <mask id="b" fill="#fff">
      <use xlink:href="#a"/>
    </mask>
    <use fill="#FFF" xlink:href="#a"/>
    <g mask="url(#b)" fill="#363C3C">
      <rect width="82" height="44"/>
    </g>
  </g>
</svg>