<svg xmlns="http://www.w3.org/2000/svg" viewBox="0 0 375.37 300.81"><defs><style>.cls-1{fill:#fff;}</style></defs><title>logo_blanc</title><g id="Calque_2" data-name="Calque 2"><g id="Calque_1-2" data-name="Calque 1"><path class="cls-1" d="M375.28,158.84V67.1a19.19,19.19,0,0,0-19.17-19.17h-2.6a19,19,0,0,0-11.41,3.81V29.15A19.18,19.18,0,0,0,322.93,10h-2.6a19.09,19.09,0,0,0-12.07,4.29A19.19,19.19,0,0,0,289.75,0h-2.6A19.19,19.19,0,0,0,268,19.16v8.66a19.06,19.06,0,0,0-11.33-3.75h-2.6a19.19,19.19,0,0,0-19.17,19.17V90.09A21.52,21.52,0,0,0,221,85a19.34,19.34,0,0,0-19.31,19.32v64.21c0,.46-.21,38,28.89,63.2v30.71a10.27,10.27,0,0,0,5.4,9,121.77,121.77,0,0,0,56,14,111,111,0,0,0,54-14.07,10.27,10.27,0,0,0,5.35-9V228.82C378,200.28,375.31,159.12,375.28,158.84Zm-33,105.82c-47.17,25.9-90.46,6.57-102.59,0a2.5,2.5,0,0,1-1.33-2.22v-24.8a86,86,0,0,0,15.55,8.26,3.88,3.88,0,0,0,2.92-7.18c-47.54-19.35-47.39-68-47.37-70.12V104.35A11.58,11.58,0,0,1,221,92.78a13.88,13.88,0,0,1,13.87,13.87V122.1a3.88,3.88,0,0,0,7.75,0V43.24a11.43,11.43,0,0,1,11.42-11.42h2.6A11.4,11.4,0,0,1,268,42.41v47.1a3.88,3.88,0,0,0,7.75,0V85.78a3,3,0,0,0,.08-.41V43.24c0-.56,0-1.11-.08-1.65V19.16A11.43,11.43,0,0,1,287.15,7.75h2.6a11.43,11.43,0,0,1,11.42,11.41V87.27a3.87,3.87,0,1,0,7.74,0V29.15a11.44,11.44,0,0,1,11.42-11.42h2.6a11.43,11.43,0,0,1,11.42,11.42V89.52a3.88,3.88,0,0,0,7.75,0V67.1a11.43,11.43,0,0,1,11.41-11.42h2.6A11.43,11.43,0,0,1,367.53,67.1v92c0,.6,3.95,59.69-45.68,81a3.87,3.87,0,0,0,3.05,7.12A79.12,79.12,0,0,0,343.58,236v26.41A2.55,2.55,0,0,1,342.26,264.66Z"/><path class="cls-1" d="M144.78,69V38.34a10.25,10.25,0,0,0-5.4-9c-13-7-59.4-27.72-110,.05a10.31,10.31,0,0,0-5.34,9V72C-2.63,100.52.06,141.68.09,142v91.74a19.18,19.18,0,0,0,19.16,19.16h2.6a19,19,0,0,0,11.42-3.81v22.59a19.19,19.19,0,0,0,19.16,19.17H55a19.09,19.09,0,0,0,12.07-4.3,19.17,19.17,0,0,0,18.51,14.29h2.6a19.18,19.18,0,0,0,19.16-19.17V273a19,19,0,0,0,11.34,3.75h2.6a19.18,19.18,0,0,0,19.16-19.16V210.71a21.5,21.5,0,0,0,13.88,5.06,19.34,19.34,0,0,0,19.31-19.31V132.24C173.67,131.78,173.88,94.27,144.78,69Zm21.14,63.13v64.29A11.57,11.57,0,0,1,154.36,208a13.89,13.89,0,0,1-13.88-13.87V178.71a3.87,3.87,0,1,0-7.74,0v78.86A11.43,11.43,0,0,1,121.32,269h-2.6a11.4,11.4,0,0,1-11.34-10.6V211.29a3.87,3.87,0,1,0-7.74,0V215a2.7,2.7,0,0,0-.08.41v42.13c0,.54,0,1.08.08,1.62v22.45a11.43,11.43,0,0,1-11.42,11.42h-2.6A11.43,11.43,0,0,1,74.2,281.64V213.53a3.87,3.87,0,0,0-7.74,0v58.12A11.44,11.44,0,0,1,55,283.07H52.43A11.43,11.43,0,0,1,41,271.65V211.29a3.88,3.88,0,1,0-7.75,0v22.42a11.43,11.43,0,0,1-11.42,11.41h-2.6A11.43,11.43,0,0,1,7.83,233.71v-92c0-.59-3.94-59.69,45.68-81a3.87,3.87,0,1,0-3-7.11A78.91,78.91,0,0,0,31.79,64.78V38.37a2.53,2.53,0,0,1,1.32-2.23c47.17-25.89,90.45-6.56,102.59,0A2.52,2.52,0,0,1,137,38.34v24.8a85.35,85.35,0,0,0-15.55-8.26,3.87,3.87,0,1,0-2.92,7.17C166.09,81.41,166,130.05,165.92,132.17Z"/><path class="cls-1" d="M336.08,183.1c0-.06,0-.13.07-.19a3.28,3.28,0,0,0,.37-.45l9.33-15.18a3.87,3.87,0,1,0-6.59-4.06l-6.56,10.67a60.19,60.19,0,0,0-14.13-14.73L323,148a3.87,3.87,0,0,0-7.2-2.84L311.88,155a50.07,50.07,0,0,0-19.24-5.67V136.81a3.88,3.88,0,1,0-7.75,0v12.48a50.12,50.12,0,0,0-18.39,5.07l-3.63-9.21a3.87,3.87,0,1,0-7.2,2.84l4.07,10.33a59.83,59.83,0,0,0-14.89,14.89l-6.13-10a3.87,3.87,0,0,0-6.6,4.06l9.33,15.18c.1.15.22.27.33.41,10.36,18.82,28,30,47.2,30S325.71,201.77,336.08,183.1ZM289,205.17c-15.93,0-30.62-9.19-39.68-24.7,9.2-14.81,23.72-23.58,39.24-23.58,15.82,0,30.52,9.05,39.68,24.32C319.14,196.26,304.61,205.17,289,205.17Z"/><circle class="cls-1" cx="288.98" cy="180.83" r="13.04"/><path class="cls-1" d="M130.76,110.87s0,0,0,0a4.38,4.38,0,0,0-.56-.58,4.26,4.26,0,0,0-.52-.52s0,0,0,0a3.25,3.25,0,0,0-.43-.18,4.25,4.25,0,0,0-.94-.39,4.7,4.7,0,0,0-.75,0,3.55,3.55,0,0,0-.73,0,3.81,3.81,0,0,0-1,.37c-.14.07-.28.08-.41.16h0a3.69,3.69,0,0,0-.57.55,4.42,4.42,0,0,0-.53.53s0,0,0,0a47.23,47.23,0,0,1-78.89-.62.34.34,0,0,1-.06-.06,3.5,3.5,0,0,0-.54-.55,4.64,4.64,0,0,0-.56-.53l-.06,0a2.7,2.7,0,0,0-.54-.2,4,4,0,0,0-.79-.29,4.07,4.07,0,0,0-.78,0,5.54,5.54,0,0,0-.7,0,4,4,0,0,0-.84.34A3.3,3.3,0,0,0,40,109l-.05,0a4.3,4.3,0,0,0-.57.56,3.3,3.3,0,0,0-.51.55.34.34,0,0,0-.06.06L29.78,125a3.88,3.88,0,0,0,1.27,5.33,3.82,3.82,0,0,0,2,.57,3.89,3.89,0,0,0,3.31-1.84l6-9.85a55,55,0,0,0,14.22,12.38l-5,12.68a3.87,3.87,0,0,0,2.19,5,3.68,3.68,0,0,0,1.41.27,3.88,3.88,0,0,0,3.61-2.45l4.73-12A54.33,54.33,0,0,0,81,139.32v12.05a3.87,3.87,0,0,0,7.74,0v-12a54.89,54.89,0,0,0,18.1-4.38l4.78,12.13a3.87,3.87,0,0,0,3.6,2.45,3.73,3.73,0,0,0,1.42-.27,3.86,3.86,0,0,0,2.18-5l-5.06-12.85a55.09,55.09,0,0,0,13.51-11.69l6.5,10.23a3.87,3.87,0,1,0,6.54-4.15Z"/></g></g></svg>