<svg width="83" height="22" viewBox="0 0 83 22" xmlns="http://www.w3.org/2000/svg" xmlns:xlink="http://www.w3.org/1999/xlink">
  <defs>
    <path d="M49.2796184 18.8021978h4.8796184v2.4274286h-4.8796184v-2.4274286zm42.402 13.6821648h4.8796184v2.4267803h-4.8796184v-2.4267803zm-47.2699342-7.2155055h2.4105987v7.2245825h-2.4105987v2.4280769h-7.3997566v4.7971538h-4.8759671V22.8965385h12.2757237v2.3723186zm-7.3997566.0544616h4.9906185v7.1701209h-4.9906185v-7.1701209zm-7.7196118 9.5981978H17.0720921v-2.4280769h-2.4668289v-9.5969011h4.8774276v9.5969011h4.9321974v-9.5969011h4.8774276v12.024978zm19.996796-12.024978h4.8766974v12.024978h-4.8766974v-12.024978zm21.4032829 2.4267802v9.5981978H58.4444211v-2.3723187h-2.0330527v-2.4579011h2.0892829v-2.3956593h7.2872961v-2.3723187h-7.2872961v-2.4267802h9.754125v2.4267802h2.4376184zm-9.1239079 4.7990989h4.2194606v2.371022h-4.2194606v-2.371022zm25.1341974-4.7990989h1.8482961v9.5981978h-4.8766974v-9.5981978h-4.9314671v9.5981978h-4.8781579v-12.024978h12.8380263v2.4267802z" id="a"/>
  </defs>
  <g transform="translate(-14 -18)" fill="none" fill-rule="evenodd">
    <mask id="b" fill="#fff">
      <use xlink:href="#a"/>
    </mask>
    <use fill="#FFF" xlink:href="#a"/>
    <g mask="url(#b)" fill="#363C3C">
      <rect width="111" height="59"/>
    </g>
  </g>
</svg>