<svg width="20" height="20" viewBox="0 0 20 20" xmlns="http://www.w3.org/2000/svg" xmlns:xlink="http://www.w3.org/1999/xlink">
  <defs>
    <path d="M12.9058311 4.00304959c.3247817-.00050826.6871752 0 1.094296 0 3.2569664 0 3.6429942.01169011 4.9291604.07014067 1.1893417.05438442 1.8348391.2531163 2.2648319.42008157.5692575.22109557.9751077.48539372 1.4017967.91233688.4269431.42694316.6912413.8335557.9128451 1.40281325.1669653.42948449.3659513 1.0749819.4200816 2.26432356C23.9872934 10.3586577 24 10.7449396 24 14.0003812s-.0127066 3.6417235-.0711572 4.9276357c-.0543844 1.1893416-.2531163 1.834839-.4200816 2.2643235-.2210955.5692576-.485902.9745995-.9128451 1.4012885-.4269432.4269432-.8322851.6912413-1.4017967.9123369-.4294845.1677276-1.0754902.3659513-2.2648319.4203357-1.2859121.0584505-1.672194.0711572-4.9291604.0711572-3.2572206 0-3.6432484-.0127067-4.92916051-.0711572-1.18934166-.0548927-1.83483907-.2536246-2.26508596-.4205899-.56925755-.2210955-.97587008-.4853937-1.40281325-.9123368-.42694316-.4269432-.69124131-.8325392-.91284514-1.4020509-.16696527-.4294845-.36595128-1.0749819-.42008158-2.2643236C4.01169011 17.6410882 4 17.2548063 4 13.9973316c0-3.2574747.01169011-3.6417235.07014066-4.92763567.05438443-1.18934167.25311631-1.83483907.42008158-2.26483183.22109557-.56925755.48590198-.97587008.91284514-1.40281325.42694317-.42694316.8335557-.69124131 1.40281325-.91284514.42999276-.16772767 1.0757443-.36595128 2.26508596-.42058984C10.1962668 4.0177893 10.6323587 4.00254133 12.9058311 4v.00304959zm1.094296 3.73575268c-3.4595103 0-6.26437442 2.80486413-6.26437442 6.26437443 0 3.4595102 2.80486412 6.2631037 6.26437442 6.2631037 3.4595103 0 6.2633578-2.8035935 6.2633578-6.2631037 0-3.4595103-2.8041017-6.26437443-6.263612-6.26437443h.0002542zm0 2.19824903c2.2455177 0 4.0661253 1.8203535 4.0661253 4.0661254 0 2.2455177-1.8206076 4.0661253-4.0661253 4.0661253-2.2457719 0-4.0661254-1.8206076-4.0661254-4.0661253 0-2.2457719 1.8203535-4.0661254 4.0661254-4.0661254zm6.5113915-3.90856301c-.8081424 0-1.4638052.65490032-1.4638052 1.46329687 0 .80814241.6556628 1.46380513 1.4638052 1.46380513.8081424 0 1.4638051-.65566272 1.4638051-1.46380513 0-.80814242-.6556627-1.46380513-1.4638051-1.46380513v.00050826z" id="a"/>
  </defs>
  <g transform="translate(-4 -4)" fill="none" fill-rule="evenodd">
    <mask id="b" fill="#fff">
      <use xlink:href="#a"/>
    </mask>
    <use fill="#000" xlink:href="#a"/>
    <g mask="url(#b)" fill="#363C3C">
      <rect width="28" height="28"/>
    </g>
  </g>
</svg>
