<svg width="25" height="20" viewBox="0 0 25 20" xmlns="http://www.w3.org/2000/svg" xmlns:xlink="http://www.w3.org/1999/xlink">
  <defs>
    <path d="M13.755592 9.32031315l.0524803.86505645-.874672-.1059253c-3.18380616-.4060469-5.9652632-1.78307546-8.32687766-4.09577727L3.45195556 4.83614324l-.29738849.84740219c-.62976385 1.88900071-.22741472 3.88392669 1.08459331 5.22564687.69973763.7414769.54229666.8474021-.66475073.4060468-.41984258-.1412337-.78720483-.2471589-.82219171-.1941963-.12245408.1235795.29738849 1.7301128.62976386 2.3656644.45482945.8827107 1.3819818 1.7477671 2.39660135 2.2597392l.85717858.4060469-1.01461955.0176542c-.97963266 0-1.01461954.0176542-.9096589.3883927.34986881 1.1475238 1.73185061 2.3656644 3.27127337 2.8952908l1.08459331.3707385-.94464578.5649347c-1.39947524.8120938-3.04385865 1.2711033-4.68824206 1.3064118C2.6472573 21.7135702 2 21.784187 2 21.8371496c0 .1765422 2.13419974 1.1651781 3.37623402 1.5535707 3.72610283 1.1475238 8.15194328.6532059 11.47569698-1.3064117 2.3616145-1.3946827 4.7232289-4.1663941 5.8253157-6.8498343.594777-1.4299912 1.1895539-4.0428146 1.1895539-5.29626372 0-.81209376.0524804-.91801904 1.032113-1.88900071.5772836-.56493479 1.1195802-1.18283222 1.2245409-1.35937435.1749344-.33543003.1574409-.33543003-.7347245-.03530842-1.4869425.52962637-1.6968638.45900952-.9621393-.33543003.5422967-.5649348 1.189554-1.58887911 1.189554-1.88900072 0-.05296263-.2624016.03530843-.5597901.19419634-.3148819.17654212-1.0146196.44135531-1.5394228.60024322l-.9446458.30012161-.8571785-.58258901c-.4723229-.31777582-1.1370737-.67086007-1.4869425-.77678534-.8921655-.24715897-2.2566538-.21185055-3.0613521.07061685-2.18668.79443955-3.5686618 2.84232817-3.4112209 5.08441313z" id="a"/>
  </defs>
  <g transform="translate(-2 -4)" fill="none" fill-rule="evenodd">
    <mask id="b" fill="#fff">
      <use xlink:href="#a"/>
    </mask>
    <g mask="url(#b)" fill="#363C3C">
      <rect width="28" height="28"/>
    </g>
  </g>
</svg>
